<svg width="60" height="60" viewBox="0 0 60 60" fill="none" xmlns="http://www.w3.org/2000/svg">
<path d="M26.9559 40.7107L33.3714 35.3645C34.2105 34.6679 35.217 34.2027 36.2913 34.015C37.3656 33.8273 38.4702 33.9236 39.4958 34.2944L46.2341 36.7446C46.5619 36.864 46.9082 36.925 47.2571 36.9249H59.8791V34.9289H53.8913V2.99391C53.8904 2.20015 53.5747 1.43916 53.0134 0.877886C52.4522 0.316614 51.6912 0.000897408 50.8974 0H8.9827C8.18895 0.000897408 7.42795 0.316614 6.86668 0.877886C6.30541 1.43916 5.98969 2.20015 5.9888 2.99391V34.9213L0.00171146 34.9168L0.000249474 36.9127L15.643 36.9246H15.6455C15.9672 36.9247 16.2868 36.8729 16.592 36.771L24.9587 33.9821C25.0604 33.9482 25.1669 33.9309 25.2741 33.931H31.9739L25.6782 39.1774C25.2924 39.4972 24.9735 39.8899 24.7398 40.3331C24.506 40.7762 24.362 41.2612 24.316 41.7601C24.2699 42.2591 24.3228 42.7622 24.4715 43.2407C24.6202 43.7192 24.8619 44.1636 25.1826 44.5485C25.5034 44.9334 25.897 45.2513 26.3408 45.4839C26.7846 45.7165 27.2699 45.8592 27.769 45.9039C28.268 45.9486 28.771 45.8944 29.2491 45.7445C29.7272 45.5945 30.1709 45.3516 30.555 45.0298L33.8707 42.2669L42.7069 51.1031C42.811 51.207 42.8935 51.3304 42.9498 51.4661C43.0062 51.6019 43.0352 51.7475 43.0353 51.8945C43.0353 52.0415 43.0064 52.1871 42.9502 52.323C42.8939 52.4588 42.8115 52.5822 42.7075 52.6862C42.6036 52.7902 42.4802 52.8726 42.3443 52.9289C42.2085 52.9851 42.0629 53.014 41.9159 53.014C41.7689 53.0139 41.6233 52.9849 41.4875 52.9286C41.3517 52.8723 41.2283 52.7897 41.1245 52.6857L40.1265 51.6877L33.6397 45.2009L32.2282 46.6122L38.715 53.099C38.8191 53.2029 38.9016 53.3263 38.958 53.4621C39.0143 53.5979 39.0433 53.7434 39.0434 53.8905C39.0434 54.0375 39.0145 54.1831 38.9583 54.3189C38.9021 54.4547 38.8196 54.5782 38.7157 54.6821C38.6117 54.7861 38.4883 54.8686 38.3525 54.9248C38.2166 54.981 38.071 55.01 37.924 55.0099C37.777 55.0099 37.6314 54.9809 37.4956 54.9245C37.3598 54.8682 37.2365 54.7857 37.1326 54.6816L36.1346 53.6837L31.6437 49.1928L30.2323 50.6041L34.7232 55.095C34.8272 55.1989 34.9097 55.3222 34.9661 55.458C35.0224 55.5938 35.0514 55.7394 35.0515 55.8864C35.0516 56.0334 35.0226 56.179 34.9664 56.3148C34.9102 56.4507 34.8277 56.5741 34.7238 56.6781C34.6198 56.782 34.4964 56.8645 34.3606 56.9207C34.2247 56.977 34.0792 57.0059 33.9321 57.0059C33.7851 57.0058 33.6396 56.9768 33.5038 56.9205C33.368 56.8641 33.2446 56.7816 33.1407 56.6776L31.1448 54.6816L30.0442 53.581C29.9703 52.8323 29.6275 52.1357 29.0793 51.6204C28.5312 51.105 27.8148 50.8058 27.0629 50.7782C27.0342 49.9933 26.7095 49.2484 26.1542 48.6931C25.5988 48.1377 24.8539 47.8131 24.069 47.7843C24.0504 47.2977 23.918 46.8222 23.6824 46.396C23.4468 45.9698 23.1146 45.6048 22.7124 45.3302C22.3102 45.0556 21.8493 44.8791 21.3666 44.8148C20.8839 44.7505 20.3928 44.8003 19.9328 44.96C19.7706 44.4509 19.4801 43.9922 19.0893 43.6278C18.6984 43.2635 18.2204 43.0058 17.7012 42.8796C17.182 42.7535 16.6391 42.763 16.1246 42.9074C15.6102 43.0518 15.1415 43.3261 14.7638 43.704L12.7678 45.6999C12.4786 45.9888 12.2492 46.3321 12.0929 46.7099C11.9366 47.0877 11.8564 47.4926 11.857 47.9015L0.00194844 47.8903L0 49.8863L5.9888 49.8919V56.8843C5.98969 57.678 6.30541 58.439 6.86668 59.0003C7.42795 59.5616 8.18895 59.8773 8.9827 59.8782H18.9624V57.8822H8.9827C8.71812 57.8819 8.46446 57.7767 8.27737 57.5896C8.09028 57.4025 7.98504 57.1488 7.98473 56.8843V49.8938L12.5794 49.8981C12.6388 49.9691 12.7012 50.0385 12.7678 50.1051C13.3223 50.6624 14.0681 50.9876 14.8537 51.0147C14.8825 51.7995 15.2072 52.5445 15.7625 53.0998C16.3179 53.6552 17.0628 53.9798 17.8476 54.0086C17.8663 54.4952 17.9987 54.9707 18.2343 55.3969C18.4699 55.823 18.8021 56.1881 19.2043 56.4627C19.6064 56.7373 20.0674 56.9138 20.5501 56.9781C21.0328 57.0424 21.5238 56.9926 21.9838 56.8328C22.1201 57.2601 22.3471 57.6529 22.6492 57.9844C22.9513 58.3158 23.3213 58.5782 23.7341 58.7535C24.1469 58.9288 24.5927 59.0128 25.041 59C25.4893 58.9872 25.9295 58.8777 26.3316 58.6791L26.7394 59.0869C27.0969 59.4448 27.5363 59.7102 28.0194 59.8601C28.5026 60.0101 29.015 60.04 29.5123 59.9473C30.0096 59.8547 30.4769 59.6422 30.8736 59.3284C31.2704 59.0145 31.5846 58.6087 31.7893 58.146C32.1716 58.5093 32.64 58.7694 33.1504 58.9019C33.6608 59.0345 34.1966 59.0352 34.7073 58.9039C35.2181 58.7726 35.6871 58.5137 36.0704 58.1514C36.4536 57.7891 36.7385 57.3354 36.8983 56.8328C37.2912 56.9698 37.7075 57.0267 38.1227 57.0001C38.5379 56.9734 38.9436 56.8639 39.3157 56.6778C39.6879 56.4917 40.0189 56.233 40.2893 55.9168C40.5598 55.6006 40.7641 55.2334 40.8902 54.8369C41.441 55.0288 42.0346 55.0621 42.6035 54.9332C43.1723 54.8042 43.6936 54.5181 44.1078 54.1075C44.5221 53.6969 44.8127 53.1782 44.9467 52.6105C45.0806 52.0428 45.0525 51.4489 44.8655 50.8964H46.6887C47.6787 50.8975 48.6465 50.603 49.4682 50.0506L50.9487 49.0575C51.1131 48.9471 51.3067 48.8881 51.5048 48.8883H51.8954V56.8843C51.8951 57.1488 51.7898 57.4025 51.6028 57.5896C51.4157 57.7767 51.162 57.8819 50.8974 57.8822H40.9177V59.8782H50.8974C51.6912 59.8773 52.4522 59.5616 53.0134 59.0003C53.5747 58.439 53.8904 57.678 53.8913 56.8843V48.8883H59.8791V46.8924H51.5048C50.9108 46.8918 50.3301 47.0685 49.8371 47.3998L48.3563 48.393C47.8634 48.7244 47.2827 48.9011 46.6887 48.9005H43.3271L38.1874 43.7608C39.9162 43.8106 41.6064 43.2436 42.9554 42.1613L43.537 41.696L42.2903 40.1374L41.7087 40.6027C40.6889 41.4201 39.4032 41.8322 38.0983 41.7599C36.7933 41.6877 35.561 41.1361 34.6377 40.2111L33.9932 39.5666L29.2772 43.4965C28.9078 43.8042 28.4313 43.9526 27.9525 43.909C27.4737 43.8654 27.0318 43.6334 26.724 43.264C26.4162 42.8947 26.2677 42.4182 26.3112 41.9394C26.3547 41.4605 26.5866 41.0186 26.9559 40.7107H26.9559ZM25.2741 31.935C24.9524 31.9349 24.6327 31.9868 24.3275 32.0887L15.9606 34.8775C15.859 34.9115 15.7525 34.9288 15.6454 34.9287H15.6446L7.98473 34.9228V2.99391C7.98504 2.72932 8.09028 2.47566 8.27737 2.28857C8.46446 2.10148 8.71812 1.99624 8.9827 1.99594H50.8974C51.162 1.99624 51.4157 2.10148 51.6028 2.28857C51.7898 2.47566 51.8951 2.72932 51.8954 2.99391V34.9289H47.2571C47.1408 34.929 47.0254 34.9086 46.9161 34.8688L40.178 32.4186C39.1374 32.0412 38.0311 31.8781 36.9258 31.9392V31.935H25.2741ZM14.9705 49.0216C14.7492 49.0216 14.5328 48.9559 14.3488 48.833C14.1648 48.71 14.0214 48.5352 13.9367 48.3307C13.852 48.1263 13.8298 47.9013 13.873 47.6842C13.9162 47.4671 14.0228 47.2677 14.1793 47.1112L16.1752 45.1153C16.3851 44.9057 16.6697 44.788 16.9663 44.7881C17.263 44.7882 17.5475 44.9061 17.7572 45.1159C17.967 45.3257 18.0848 45.6101 18.0849 45.9068C18.085 46.2034 17.9673 46.488 17.7577 46.6979L15.7618 48.6938C15.6581 48.7981 15.5348 48.8807 15.399 48.937C15.2632 48.9932 15.1175 49.022 14.9705 49.0216ZM17.9644 52.0155C17.7431 52.0155 17.5267 51.9498 17.3427 51.8269C17.1587 51.7039 17.0153 51.5291 16.9306 51.3247C16.8459 51.1202 16.8237 50.8952 16.8669 50.6781C16.9101 50.461 17.0167 50.2616 17.1732 50.1051L19.1691 48.1092L20.1671 47.1112C20.377 46.9016 20.6616 46.7839 20.9582 46.7841C21.2549 46.7842 21.5393 46.9021 21.7491 47.1118C21.9588 47.3216 22.0767 47.6061 22.0768 47.9027C22.0769 48.1994 21.9592 48.4839 21.7496 48.6938L18.7557 51.6877C18.652 51.792 18.5287 51.8746 18.3929 51.9309C18.2571 51.9871 18.1114 52.0159 17.9644 52.0155ZM21.7496 54.6816C21.5397 54.8913 21.2551 55.0089 20.9585 55.0088C20.6618 55.0087 20.3773 54.8908 20.1676 54.681C19.9578 54.4713 19.84 54.1868 19.8399 53.8901C19.8398 53.5935 19.9575 53.3089 20.1671 53.099L23.161 50.1051C23.3709 49.8955 23.6555 49.7779 23.9521 49.778C24.2488 49.7781 24.5332 49.896 24.743 50.1058C24.9527 50.3155 25.0706 50.6 25.0707 50.8966C25.0708 51.1933 24.9531 51.4778 24.7435 51.6877L22.7475 53.6837L21.7496 54.6816ZM25.7414 56.6776C25.5315 56.8872 25.247 57.0049 24.9503 57.0048C24.6537 57.0046 24.3692 56.8867 24.1595 56.677C23.9497 56.4672 23.8318 56.1827 23.8317 55.8861C23.8316 55.5894 23.9494 55.3049 24.159 55.095L26.1549 53.099C26.3648 52.8894 26.6494 52.7718 26.946 52.7719C27.2427 52.772 27.5271 52.8899 27.7369 53.0997C27.9467 53.3094 28.0645 53.5939 28.0646 53.8906C28.0647 54.1872 27.947 54.4717 27.7374 54.6816L25.7414 56.6776ZM29.7333 57.6756C29.6294 57.7795 29.5061 57.8619 29.3703 57.9181C29.2345 57.9744 29.089 58.0033 28.9421 58.0033C28.7951 58.0033 28.6496 57.9744 28.5139 57.9181C28.3781 57.8619 28.2548 57.7795 28.1509 57.6756L27.8585 57.3832L29.1488 56.093C29.2464 55.995 29.3373 55.8907 29.4211 55.7807L29.7333 56.093C29.9429 56.303 30.0606 56.5876 30.0606 56.8843C30.0606 57.181 29.9429 57.4655 29.7333 57.6756Z" fill="#039BE5"/>
<path d="M10.9786 23.9514H22.9543V25.9474H10.9786V23.9514Z" fill="#039BE5"/>
<path d="M13.9726 27.9431H18.9624V29.9391H13.9726V27.9431Z" fill="#039BE5"/>
<path d="M36.9258 23.9514H48.9015V25.9474H36.9258V23.9514Z" fill="#039BE5"/>
<path d="M39.9197 27.9431H44.9096V29.9391H39.9197V27.9431Z" fill="#039BE5"/>
<path d="M22.9543 4.98975H36.9259V6.98568H22.9543V4.98975Z" fill="#039BE5"/>
<path d="M10.9786 9.97949H48.9015V11.9754H10.9786V9.97949Z" fill="#039BE5"/>
<path d="M10.9786 13.9714H48.9015V15.9674H10.9786V13.9714Z" fill="#039BE5"/>
<path d="M10.9786 17.9636H31.936V19.9596H10.9786V17.9636Z" fill="#039BE5"/>
</svg>

