<svg width="60" height="60" viewBox="0 0 60 60" fill="none" xmlns="http://www.w3.org/2000/svg">
<path d="M46.6104 0H32.6838C29.6325 0 26.7636 1.18852 24.6057 3.34652L7.42008 20.531C5.26289 22.6894 4.07496 25.5582 4.07496 28.609V30.3911C4.07496 30.3979 4.07449 30.4045 4.07449 30.4113C4.07449 30.4147 4.07496 30.4181 4.07496 30.4215V50.6848C4.07496 55.8212 8.25375 60 13.3902 60H16.1476C16.633 60 17.0265 59.6065 17.0265 59.1211C17.0265 58.6357 16.633 58.2422 16.1476 58.2422H13.3902C9.22301 58.2422 5.83277 54.852 5.83277 50.6848V30.3911C5.84379 27.4829 8.21262 25.1204 11.1232 25.1204H19.8795C25.0158 25.1204 29.1943 20.9418 29.1943 15.8054V7.04918C29.1943 4.1318 31.5679 1.75828 34.4852 1.75828C34.4886 1.75828 34.492 1.75781 34.4954 1.75781H46.6105C50.7777 1.75781 54.1679 5.14805 54.1679 9.31523V13.3402H49.1101L45.2191 9.45023C45.2454 9.26051 45.26 9.06715 45.26 8.87027C45.26 6.54926 43.3717 4.6609 41.0507 4.6609C38.7296 4.6609 36.8413 6.54926 36.8413 8.87027C36.8413 11.1913 38.7296 13.0796 41.0507 13.0796C41.2474 13.0796 41.4408 13.065 41.6304 13.0387L46.2643 17.6727C46.7433 18.1516 47.3803 18.4154 48.058 18.4154H54.1679V19.5971H49.9011C49.4157 19.5971 49.0222 19.9907 49.0222 20.4761C49.0222 20.9614 49.4157 21.355 49.9011 21.355H54.1679V22.914H43.6359C43.4029 22.914 43.1793 23.0066 43.0145 23.1715L41.4983 24.6875C41.2022 24.255 40.8275 23.8805 40.395 23.5843L42.3967 21.5827C42.5435 21.4358 42.7395 21.355 42.9483 21.355H46.3854C46.8708 21.355 47.2643 20.9614 47.2643 20.4761C47.2643 19.9907 46.8708 19.5971 46.3854 19.5971H42.9483C42.2699 19.5971 41.6326 19.8608 41.1538 20.3398L38.6025 22.8911C38.413 22.8648 38.2198 22.8503 38.0232 22.8503C35.7022 22.8503 33.8139 24.7386 33.8139 27.0596C33.8139 29.3807 35.7022 31.269 38.0232 31.269C40.3443 31.269 42.2326 29.3807 42.2326 27.0596C42.2326 26.863 42.218 26.6698 42.1917 26.4802L44 24.672H54.1679V25.8544H52.3584C51.6807 25.8544 51.0438 26.1182 50.5648 26.5971L45.9302 31.2316C45.7407 31.2054 45.5476 31.1909 45.351 31.1909C43.03 31.1909 41.1416 33.0792 41.1416 35.4002C41.1416 37.7212 43.03 39.6096 45.351 39.6096C47.672 39.6096 49.5604 37.7212 49.5604 35.4002C49.5604 35.2032 49.5457 35.0096 49.5193 34.8197L53.4103 30.9296H54.1677V50.6848C54.1677 54.852 50.7775 58.2422 46.6103 58.2422H19.663C19.1776 58.2422 18.7841 58.6357 18.7841 59.1211C18.7841 59.6065 19.1776 60 19.663 60H46.6103C51.7467 60 55.9255 55.8212 55.9255 50.6848V9.31523C55.9256 4.17879 51.7468 0 46.6104 0V0ZM27.4364 15.8054C27.4364 19.9725 24.0463 23.3626 19.8793 23.3626H11.1231C9.34852 23.3626 7.72641 24.0232 6.48586 25.1095C6.96504 23.874 7.69817 22.7394 8.66309 21.7739L25.8486 4.58953C26.814 3.62414 27.9485 2.89078 29.1839 2.41137C28.0972 3.65191 27.4364 5.27437 27.4364 7.0493V15.8054ZM38.0232 29.5112C36.6715 29.5112 35.5717 28.4114 35.5717 27.0596C35.5717 25.7079 36.6715 24.6081 38.0232 24.6081C39.375 24.6081 40.4748 25.7079 40.4748 27.0596C40.4748 28.4114 39.375 29.5112 38.0232 29.5112ZM38.5991 8.87027C38.5991 7.51852 39.6989 6.41871 41.0507 6.41871C42.4024 6.41871 43.5022 7.51852 43.5022 8.87027C43.5022 10.222 42.4024 11.3218 41.0507 11.3218C39.6989 11.3218 38.5991 10.2221 38.5991 8.87027ZM48.0579 16.6577C47.8498 16.6577 47.6542 16.5768 47.5072 16.4298L43.4228 12.3454C43.8551 12.0493 44.2295 11.6749 44.5255 11.2426L48.1246 14.8407C48.2895 15.0055 48.5129 15.0981 48.746 15.0981H54.1678V16.6577H48.0579ZM45.351 37.8518C43.9992 37.8518 42.8994 36.752 42.8994 35.4002C42.8994 34.0485 43.9992 32.9487 45.351 32.9487C46.7027 32.9487 47.8025 34.0485 47.8025 35.4002C47.8025 36.752 46.7029 37.8518 45.351 37.8518ZM53.0464 29.1718C52.8134 29.1718 52.5899 29.2644 52.425 29.4292L48.8257 33.0275C48.5296 32.5954 48.1552 32.2209 47.7229 31.9249L51.8077 27.8401C51.9546 27.6932 52.1502 27.6122 52.3583 27.6122H54.1678V29.1718H53.0464Z" fill="#039BE5"/>
<path d="M11.7154 32.7751H28.909C29.3944 32.7751 29.7879 32.3816 29.7879 31.8962C29.7879 31.4108 29.3944 31.0173 28.909 31.0173H11.7154C11.23 31.0173 10.8365 31.4108 10.8365 31.8962C10.8365 32.3816 11.23 32.7751 11.7154 32.7751Z" fill="#039BE5"/>
<path d="M11.7154 37.3721H36.3642C36.8496 37.3721 37.2431 36.9786 37.2431 36.4932C37.2431 36.0078 36.8496 35.6143 36.3642 35.6143H11.7154C11.23 35.6143 10.8365 36.0078 10.8365 36.4932C10.8365 36.9786 11.23 37.3721 11.7154 37.3721Z" fill="#039BE5"/>
<path d="M11.7154 41.9692H36.3642C36.8496 41.9692 37.2431 41.5757 37.2431 41.0903C37.2431 40.6049 36.8496 40.2114 36.3642 40.2114H11.7154C11.23 40.2114 10.8365 40.6049 10.8365 41.0903C10.8365 41.5757 11.23 41.9692 11.7154 41.9692Z" fill="#039BE5"/>
<path d="M11.7154 46.5662H36.3642C36.8496 46.5662 37.2431 46.1726 37.2431 45.6873C37.2431 45.2019 36.8496 44.8083 36.3642 44.8083H11.7154C11.23 44.8083 10.8365 45.2019 10.8365 45.6873C10.8365 46.1726 11.23 46.5662 11.7154 46.5662Z" fill="#039BE5"/>
<path d="M38.0232 52.6479H47.0173C47.5027 52.6479 47.8962 52.2544 47.8962 51.769C47.8962 51.2837 47.5027 50.8901 47.0173 50.8901H38.0232C37.5378 50.8901 37.1443 51.2837 37.1443 51.769C37.1443 52.2544 37.5378 52.6479 38.0232 52.6479Z" fill="#039BE5"/>
</svg>
