<svg width="60" height="60" viewBox="0 0 60 60" fill="none" xmlns="http://www.w3.org/2000/svg">
<g clip-path="url(#clip0_16_351)">
<path d="M25.5059 33.0418C23.0291 35.5186 23.0298 39.554 25.5059 42.0302C27.9996 44.5238 32.0309 44.4933 34.4941 42.0302V42.0301C36.9722 39.5521 36.9722 35.5199 34.4941 33.0418C32.0162 30.5638 27.9839 30.5639 25.5059 33.0418ZM30 32.9404C30.8981 32.9404 31.7959 33.202 32.5693 33.7236L29.6624 36.6306L25.5637 36.3363C25.7657 35.5845 26.1599 34.8738 26.7489 34.2848C27.6452 33.3884 28.8225 32.9404 30 32.9404ZM25.4388 38.0897L29.1779 38.3583L29.4464 42.0974C28.4598 41.9787 27.5045 41.5429 26.7489 40.7875C25.9932 40.0317 25.5574 39.0763 25.4388 38.0897ZM33.2511 40.7872C32.6623 41.3762 31.9516 41.7704 31.1998 41.9725L30.9055 37.8737L33.8125 34.9668C35.0177 36.7539 34.8313 39.2071 33.2511 40.7872Z" fill="#039BE5"/>
<path d="M59.1211 34.7215C59.6066 34.7215 60 34.3281 60 33.8426V31.5713C60 30.6708 59.2675 29.9383 58.367 29.9383H55.7487C54.8482 29.9383 54.1157 30.6708 54.1157 31.5713V31.9118H48.3123C48.1608 31.6472 47.8764 31.4686 47.5496 31.4686C47.2229 31.4686 46.9384 31.6472 46.787 31.9118H42.292C40.941 28.9708 38.565 26.5948 35.6239 25.2437V19.3506C35.6239 18.2384 34.719 17.3335 33.6068 17.3335H32.7056V13.9873H36.698C37.7381 13.9873 38.5845 13.141 38.5845 12.1008V10.8316C38.5845 9.7914 37.7381 8.94507 36.698 8.94507H28.7688C28.2834 8.94507 27.8899 9.33847 27.8899 9.82397C27.8899 10.3095 28.2834 10.7029 28.7688 10.7029H36.698C36.7689 10.7029 36.8266 10.7605 36.8266 10.8316V12.1009C36.8266 12.1718 36.769 12.2296 36.698 12.2296C32.282 12.2296 27.2729 12.2296 23.3018 12.2296C23.2309 12.2296 23.1731 12.1719 23.1731 12.1009V10.8316C23.1731 10.7607 23.2308 10.7029 23.3018 10.7029H25.2548C25.7402 10.7029 26.1337 10.3095 26.1337 9.82397C26.1337 9.33847 25.7402 8.94507 25.2548 8.94507H23.3018C22.2616 8.94507 21.4153 9.7914 21.4153 10.8316V12.1009C21.4153 13.1411 22.2615 13.9874 23.3018 13.9874H27.2943V17.3336H26.3931C25.2809 17.3336 24.3759 18.2385 24.3759 19.3507V25.2439C21.4349 26.5948 19.0588 28.9709 17.7079 31.9119H13.2129C13.0614 31.6473 12.777 31.4687 12.4502 31.4687C12.1235 31.4687 11.8391 31.6473 11.6876 31.9119H5.88422V31.5714C5.88422 30.6709 5.15168 29.9384 4.25121 29.9384H1.63289C0.732539 29.9383 0 30.6708 0 31.5713V43.5006C0 44.4011 0.732539 45.1336 1.63289 45.1336H4.25121C5.15168 45.1336 5.88422 44.4011 5.88422 43.5006V43.16H6.97066C7.45605 43.16 7.84957 42.7666 7.84957 42.281C7.84957 41.7955 7.45605 41.4021 6.97066 41.4021H5.88422V33.6698H11.5713V41.4021H10.4849C9.99949 41.4021 9.60598 41.7955 9.60598 42.281C9.60598 42.7666 9.99949 43.16 10.4849 43.16H11.6876C11.8391 43.4246 12.1235 43.6032 12.4502 43.6032C12.777 43.6032 13.0614 43.4246 13.2129 43.16H17.7077C19.8458 47.8145 24.5514 51.0549 30 51.0549C35.4485 51.0549 40.1541 47.8145 42.2921 43.16H46.787C46.9385 43.4246 47.2229 43.6032 47.5496 43.6032C47.8764 43.6032 48.1609 43.4246 48.3123 43.16H54.1157V43.5006C54.1157 44.4011 54.8482 45.1336 55.7487 45.1336H58.367C59.2675 45.1336 60 44.4011 60 43.5006V37.3566C60 36.8711 59.6066 36.4777 59.1211 36.4777C58.6356 36.4777 58.2422 36.8711 58.2422 37.3566V43.3757H55.8736C55.8736 41.9139 55.8736 33.1675 55.8736 31.6961H58.2422V33.8425C58.2422 34.328 58.6356 34.7215 59.1211 34.7215ZM4.12641 43.3757H1.75781V31.6961H4.12641V43.3757ZM29.0522 13.9874H30.9479V17.3336H29.0522V13.9874ZM26.1337 19.3507C26.1337 19.2078 26.2501 19.0914 26.3931 19.0914H33.6069C33.7499 19.0914 33.8662 19.2078 33.8662 19.3507V24.5813C32.6407 24.2148 31.3431 24.017 30 24.017C28.6569 24.017 27.3593 24.2148 26.1337 24.5813V19.3507ZM13.3291 41.4021V33.6698H17.0453C16.6788 34.8953 16.481 36.1929 16.481 37.536C16.481 38.8791 16.6788 40.1766 17.0453 41.4021H13.3291ZM30 49.2971C23.5148 49.2971 18.2388 44.0212 18.2388 37.536C18.2388 31.0509 23.5148 25.7748 30 25.7748C36.485 25.7748 41.7611 31.0507 41.7611 37.5359C41.7611 44.021 36.485 49.2971 30 49.2971ZM42.9546 33.6696H46.6709V41.402H42.9547C43.3212 40.1765 43.519 38.879 43.519 37.5359C43.5189 36.1928 43.3211 34.8952 42.9546 33.6696ZM48.4286 41.4021V33.6698H54.1157V41.4021H48.4286Z" fill="#039BE5"/>
<path d="M30 29.2615C30.4854 29.2615 30.8789 28.8681 30.8789 28.3826V28.062C30.8789 27.5765 30.4854 27.1831 30 27.1831C29.5146 27.1831 29.1211 27.5765 29.1211 28.062V28.3826C29.1211 28.8681 29.5146 29.2615 30 29.2615Z" fill="#039BE5"/>
<path d="M39.4739 36.657H39.1533C38.6678 36.657 38.2744 37.0504 38.2744 37.5359C38.2744 38.0214 38.6678 38.4148 39.1533 38.4148H39.4739C39.9594 38.4148 40.3528 38.0214 40.3528 37.5359C40.3528 37.0504 39.9594 36.657 39.4739 36.657Z" fill="#039BE5"/>
<path d="M30 45.8103C29.5146 45.8103 29.1211 46.2037 29.1211 46.6892V47.01C29.1211 47.4955 29.5146 47.8889 30 47.8889C30.4854 47.8889 30.8789 47.4955 30.8789 47.01V46.6892C30.8789 46.2037 30.4854 45.8103 30 45.8103Z" fill="#039BE5"/>
<path d="M20.8467 36.657H20.5261C20.0407 36.657 19.6472 37.0504 19.6472 37.5359C19.6472 38.0214 20.0407 38.4148 20.5261 38.4148H20.8467C21.3321 38.4148 21.7256 38.0214 21.7256 37.5359C21.7256 37.0504 21.3321 36.657 20.8467 36.657Z" fill="#039BE5"/>
</g>
<defs>
<clipPath id="clip0_16_351">
<rect width="60" height="60" fill="white"/>
</clipPath>
</defs>
</svg>
