<svg width="60" height="60" viewBox="0 0 60 60" fill="none" xmlns="http://www.w3.org/2000/svg">
<g clip-path="url(#clip0_4_62)">
<path d="M53.0002 15.937V5.93733C53.0002 5.3851 52.5525 4.93736 52.0003 4.93736H48.0004V6.9373H51.0003V15.937H53.0002Z" fill="#045D9D"/>
<path d="M7.00174 30.9365V55.9357C7.00174 56.4879 7.44948 56.9357 8.00171 56.9357H48.0004C48.5526 56.9357 49.0004 56.4879 49.0004 55.9357V48.9359H47.0004V54.9357H9.00167V30.9365H7.00174Z" fill="#045D9D"/>
<path d="M39.4147 1.03759C39.3835 1.02343 39.3537 1.01562 39.3215 1.00439C39.238 0.975585 39.1511 0.958495 39.0627 0.952636C39.0407 0.94873 39.0217 0.9375 39.0007 0.9375H8.00171C7.44948 0.9375 7.00174 1.38524 7.00174 1.93747V3.9374H9.00167V2.93743H38.0007V10.9372C38.0007 11.4894 38.4485 11.9371 39.0007 11.9371H47.0004V16.937H49.0004V10.9372C49.0004 10.9162 48.9896 10.8971 48.9882 10.8752C48.9828 10.7868 48.9652 10.6999 48.9364 10.6164C48.9252 10.5842 48.9174 10.5544 48.9032 10.5231C48.8549 10.4142 48.787 10.3151 48.7035 10.2302L39.7038 1.23046C39.6193 1.1499 39.5217 1.08447 39.4147 1.03759ZM45.5864 9.93721H40.0007V4.35145L45.5864 9.93721Z" fill="#045D9D"/>
<path d="M23.0012 42.9361V50.9359C23.0012 51.4881 23.449 51.9358 24.0012 51.9358H37.0008V49.9359H25.0012V43.9361H30.001V41.9362H24.0012C23.449 41.9362 23.0012 42.3839 23.0012 42.9361Z" fill="#045D9D"/>
<path d="M27.0011 45.936H33.0009V47.936H27.0011V45.936Z" fill="#045D9D"/>
<path d="M53.0002 17.9369C49.1366 17.9418 46.0054 21.0731 46.0005 24.9367V25.0368L40.9005 30.4204L37.7078 27.2277C37.3172 26.837 36.6844 26.837 36.2938 27.2277L27.2941 36.2274C26.9039 36.618 26.9039 37.2508 27.2941 37.6414L41.2936 51.6409C41.6842 52.031 42.317 52.031 42.7076 51.6409L45.7075 48.641L51.0003 43.3502V58.9356H12.0016V60.9355H52.0003C52.5525 60.9355 53.0002 60.4878 53.0002 59.9356V35.9364H51.0003V40.5221L47.5146 37.0364L52.9001 31.9365H53.0002C56.8663 31.9365 60 28.8028 60 24.9367C60 21.0706 56.8663 17.9369 53.0002 17.9369ZM42.0006 49.5218L29.4151 36.9363L31.001 35.3504L43.5865 47.936L42.0006 49.5218ZM49.5863 41.9362L45.0005 46.5219L32.415 33.9364L37.0008 29.3506L39.5246 31.8745L37.2747 34.2484C36.8987 34.6424 36.9075 35.2645 37.2937 35.6483L42.2936 40.6481C42.6764 41.0309 43.2945 41.0392 43.6876 40.6672L46.0625 38.4172L49.5863 41.9362ZM53.0002 29.9365H52.5003C52.2444 29.9365 51.9983 30.0347 51.8123 30.2105L43.0196 38.5364L39.4006 34.9173L47.7304 26.1247C47.9052 25.9381 48.0014 25.6921 48.0004 25.4367V24.9367C48.0004 22.1756 50.2391 19.9369 53.0002 19.9369C55.7614 19.9369 58.0001 22.1756 58.0001 24.9367C58.0001 27.6979 55.7614 29.9365 53.0002 29.9365Z" fill="#045D9D"/>
<path d="M19.0013 29.9366H29.001V31.9365H19.0013V29.9366Z" fill="#045D9D"/>
<path d="M13.0015 33.9364H25.0011V35.9364H13.0015V33.9364Z" fill="#045D9D"/>
<path d="M22.0013 25.9367H34.0009V27.9366H22.0013V25.9367Z" fill="#045D9D"/>
<path d="M13.0015 37.9363H19.0013V39.9362H13.0015V37.9363Z" fill="#045D9D"/>
<path d="M13.0015 41.9362H21.0013V43.9361H13.0015V41.9362Z" fill="#045D9D"/>
<path d="M13.0015 45.936H21.0013V47.936H13.0015V45.936Z" fill="#045D9D"/>
<path d="M13.0015 49.9359H21.0013V51.9358H13.0015V49.9359Z" fill="#045D9D"/>
<path d="M13.0015 29.9366H17.0014V31.9365H13.0015V29.9366Z" fill="#045D9D"/>
<path d="M21.0013 37.9363H25.0012V39.9362H21.0013V37.9363Z" fill="#045D9D"/>
<path d="M25.0012 20.9368H35.0008V22.9368H25.0012V20.9368Z" fill="#045D9D"/>
<path d="M12.0015 28.9366C18.4598 28.9293 23.754 23.8113 23.9801 17.3569C24.5201 17.809 25.2179 18.0273 25.919 17.9628C26.4341 18.58 27.1968 18.9369 28.001 18.9369C28.8051 18.9369 29.5678 18.58 30.0829 17.9628C30.8837 18.0346 31.6747 17.7475 32.243 17.1792C32.8113 16.6108 33.0984 15.8198 33.0267 15.0191C33.6443 14.5039 34.0008 13.7413 34.0008 12.9371C34.0008 12.1329 33.6443 11.3703 33.0267 10.8551C33.0984 10.0544 32.8113 9.2634 32.243 8.69506C31.6747 8.12672 30.8837 7.83962 30.0829 7.91139C29.5678 7.29422 28.8051 6.9373 28.001 6.9373C27.1968 6.9373 26.4341 7.29422 25.919 7.91139C25.1182 7.83962 24.3273 8.12672 23.7589 8.69506C23.1906 9.2634 22.9035 10.0544 22.9752 10.8551C22.8273 10.9772 22.693 11.1154 22.5754 11.2672C19.801 6.0926 13.6904 3.68546 8.13247 5.57748C2.57455 7.47 -0.798384 13.1056 0.161057 18.8978C1.1205 24.6901 6.13059 28.9376 12.0015 28.9366ZM24.4669 12.277C24.7335 12.1822 24.9474 11.9791 25.0557 11.7179C25.1637 11.4567 25.1563 11.1618 25.0352 10.9064C24.9054 10.6379 24.9596 10.3171 25.17 10.1061C25.3809 9.8957 25.7017 9.8415 25.9703 9.97138C26.2256 10.0925 26.5205 10.0998 26.7818 9.99189C27.043 9.88349 27.2461 9.66963 27.3408 9.40304C27.4399 9.12327 27.7041 8.93626 28.001 8.93626C28.2978 8.93626 28.562 9.12327 28.6611 9.40304C28.7558 9.66963 28.9589 9.88349 29.2202 9.99189C29.4814 10.0998 29.7763 10.0925 30.0321 9.97138C30.3002 9.8415 30.621 9.8957 30.8319 10.1061C31.0424 10.3171 31.0966 10.6379 30.9667 10.9064C30.8456 11.1618 30.8383 11.4567 30.9462 11.7179C31.0546 11.9791 31.2684 12.1822 31.535 12.277C31.8148 12.3761 32.0018 12.6402 32.0018 12.9371C32.0018 13.234 31.8148 13.4981 31.535 13.5972C31.2684 13.692 31.0546 13.8951 30.9462 14.1563C30.8383 14.4175 30.8456 14.7124 30.9667 14.9683C31.1049 15.2354 31.0487 15.562 30.829 15.7681C30.622 15.9858 30.2968 16.0415 30.0287 15.9062C29.7734 15.7847 29.4785 15.7773 29.2172 15.8857C28.956 15.9936 28.7529 16.2075 28.6582 16.4741C28.559 16.7539 28.2944 16.9409 27.998 16.9409C27.7012 16.9409 27.437 16.7539 27.3379 16.4741C27.2432 16.207 27.0396 15.9932 26.7779 15.8853C26.6563 15.8354 26.5264 15.8096 26.3951 15.8091C26.2466 15.8096 26.1001 15.8437 25.9669 15.9092C25.6988 16.0386 25.378 15.9844 25.1671 15.7739C24.9566 15.563 24.9024 15.2422 25.0323 14.9741C25.1534 14.7188 25.1607 14.4239 25.0528 14.1627C24.9444 13.9009 24.7306 13.6978 24.464 13.6031C24.1842 13.5045 23.9972 13.2398 23.9972 12.943C23.9972 12.6466 24.1842 12.3819 24.464 12.2833L24.4669 12.277ZM12.0015 6.9373C17.5243 6.9373 22.0012 11.4142 22.0012 16.937C22.0012 22.4597 17.5243 26.9366 12.0015 26.9366C6.47872 26.9366 2.00182 22.4597 2.00182 16.937C2.00768 11.4166 6.48116 6.94316 12.0015 6.9373Z" fill="#045D9D"/>
<path d="M7.2947 22.6438C7.68531 23.0339 8.31811 23.0339 8.70872 22.6438L18.7084 12.6441L17.2944 11.2301L8.00171 20.5228L5.70882 18.2299L4.2948 19.6439L7.2947 22.6438Z" fill="#045D9D"/>
</g>
<defs>
<clipPath id="clip0_4_62">
<rect width="60" height="60" fill="white"/>
</clipPath>
</defs>
</svg>
