<svg width="60" height="60" viewBox="0 0 60 60" fill="none" xmlns="http://www.w3.org/2000/svg">
<path d="M56.0156 48.8672H53.6719V43.7109C53.6719 42.0308 52.305 40.6641 50.625 40.6641H40.3125C39.6653 40.6641 39.1406 41.1888 39.1406 41.8359C39.1406 42.4831 39.6653 43.0078 40.3125 43.0078H50.625C51.0128 43.0078 51.3281 43.3232 51.3281 43.7109V48.8672H31.1868V43.4766C31.1868 42.8295 30.6621 42.3047 30.0149 42.3047C29.3677 42.3047 28.843 42.8295 28.843 43.4766V48.8672H8.67188V43.7109C8.67188 43.3232 8.98723 43.0078 9.375 43.0078H19.6875C20.3347 43.0078 20.8594 42.4831 20.8594 41.8359C20.8594 41.1888 20.3347 40.6641 19.6875 40.6641H9.375C7.695 40.6641 6.32812 42.0308 6.32812 43.7109V48.8672H3.98438C1.78734 48.8672 0 50.6545 0 52.8516C0 55.0486 1.78734 56.8359 3.98438 56.8359H24.7339C25.3812 56.8359 25.9058 56.3112 25.9058 55.6641C25.9058 55.017 25.3812 54.4922 24.7339 54.4922H3.98438C3.07969 54.4922 2.34375 53.7563 2.34375 52.8516C2.34375 51.9469 3.07969 51.2109 3.98438 51.2109H56.0156C56.9203 51.2109 57.6562 51.9469 57.6562 52.8516C57.6562 53.7563 56.9203 54.4922 56.0156 54.4922H35.2808C34.6336 54.4922 34.1089 55.017 34.1089 55.6641C34.1089 56.3112 34.6336 56.8359 35.2808 56.8359H56.0156C58.2127 56.8359 60 55.0486 60 52.8516C60 50.6545 58.2127 48.8672 56.0156 48.8672Z" fill="#045D9D"/>
<path d="M27.8395 39.5063C28.3683 39.6237 29.5992 39.6844 29.6586 39.683C29.7721 39.6859 29.8857 39.6875 29.9999 39.6875C37.1391 39.6875 42.9473 33.8794 42.9473 26.7401C42.9473 24.9857 42.6018 23.2829 41.9201 21.6792C41.9187 21.6758 41.9171 21.6724 41.9156 21.6691C41.5901 20.905 41.1862 20.1662 40.7149 19.4726C40.2934 18.7477 39.8494 18.0161 39.4195 17.3081C36.8215 13.028 34.3673 8.98524 35.3851 4.60079C35.4834 4.17716 35.3391 3.73383 35.0101 3.4493C34.6812 3.16489 34.2217 3.08591 33.8166 3.24446C29.8556 4.7945 27.0555 8.48965 25.9603 11.734C23.6907 9.03399 20.875 8.69274 20.7205 8.6761C20.3074 8.6318 19.9018 8.81087 19.6541 9.14485C19.4065 9.47884 19.355 9.92087 19.5177 10.3035C19.5371 10.3491 21.4245 14.9075 19.056 19.8245C18.777 20.265 18.5255 20.7191 18.3076 21.1759C18.2911 21.2073 18.2761 21.2394 18.2626 21.2718C17.4594 22.9925 17.0522 24.8319 17.0522 26.7398C17.0525 33.1433 21.7252 38.4749 27.8395 39.5063ZM24.2571 32.1205C24.2571 28.9596 26.0523 27.3328 27.7886 25.7595C28.6645 24.9656 29.559 24.155 30.1099 23.175C33.1316 25.9038 34.7037 29.586 34.7037 32.1205C34.7037 34.9328 32.4695 37.2318 29.683 37.3386C29.2098 37.3247 28.7445 37.2792 28.2886 37.2049C25.9811 36.6641 24.2571 34.5905 24.2571 32.1205ZM20.4061 22.2219C20.4086 22.2166 20.411 22.2114 20.4135 22.206C20.6016 21.8093 20.8216 21.4134 21.0677 21.0293C21.0921 20.9912 21.1143 20.9518 21.1341 20.9112C22.9061 17.2816 22.7483 13.8628 22.3357 11.7021C23.4432 12.3415 24.7905 13.5531 25.6316 15.8306C25.8493 16.4202 26.4935 16.7332 27.0915 16.5396C27.6896 16.3463 28.0286 15.7154 27.8598 15.1099C27.4048 13.4772 29.1267 8.87368 32.807 6.4063C32.7079 10.7681 35.0955 14.7015 37.4161 18.5243C37.8473 19.2347 38.2931 19.9691 38.7095 20.6862C38.724 20.7113 38.7395 20.7357 38.7559 20.7597C39.1519 21.3382 39.4902 21.9547 39.7615 22.5922C39.7634 22.5966 39.7652 22.6009 39.7672 22.6054C40.3222 23.9147 40.6037 25.3056 40.6037 26.7397C40.6037 30.1879 38.949 33.2565 36.3922 35.1943C36.812 34.2543 37.0474 33.2145 37.0474 32.1202C37.0474 27.9987 34.2153 23.1022 30.1604 20.2131C29.8031 19.9584 29.3336 19.9249 28.9436 20.1258C28.5536 20.3268 28.3085 20.7288 28.3085 21.1675C28.3085 22.0787 27.5128 22.8459 26.2146 24.0224C24.3994 25.6673 21.9132 27.9202 21.9132 32.1202C21.9132 32.7018 21.9814 33.2674 22.1062 33.8118C20.4223 31.9341 19.3963 29.4546 19.3963 26.7397C19.3963 25.162 19.7361 23.6419 20.4061 22.2219Z" fill="#045D9D"/>
<path d="M30.007 54.4852C29.6988 54.4852 29.3965 54.6095 29.1785 54.8286C28.9605 55.0465 28.8351 55.3478 28.8351 55.657C28.8351 55.9652 28.9605 56.2676 29.1785 56.4856C29.3965 56.7035 29.6988 56.8289 30.007 56.8289C30.3164 56.8289 30.6176 56.7036 30.8355 56.4856C31.0547 56.2676 31.1789 55.9652 31.1789 55.657C31.1789 55.3477 31.0547 55.0465 30.8355 54.8286C30.6187 54.6094 30.3164 54.4852 30.007 54.4852Z" fill="#045D9D"/>
</svg>
