<svg width="60" height="60" viewBox="0 0 60 60" fill="none" xmlns="http://www.w3.org/2000/svg">
<g clip-path="url(#clip0_16_345)">
<path d="M59.9997 5.958C60.0034 5.14315 59.6791 4.36109 59.0997 3.78801L56.2118 0.900038C55.6414 0.32341 54.8639 -0.000689942 54.0528 1.10282e-06H54.0428C53.2366 0.000494707 52.4646 0.324792 51.8998 0.900038L38.7999 13.9999H13.0001V3.00003C13.0001 1.3431 11.6569 1.10282e-06 10.0001 1.10282e-06H8.00013C3.58396 0.00493714 0.0051344 3.58376 0.000198364 7.99994V52.2506C0.250455 56.6331 3.90075 60.0451 8.29017 59.9995H56.9998C58.6566 59.9995 59.9997 58.6564 59.9997 56.9996V16.9999C59.9997 15.3431 58.6566 13.9999 56.9998 13.9999H53.1998L59.0998 8.09994C59.6738 7.53486 59.9979 6.76356 59.9997 5.958ZM35.78 24.9998C35.5683 25.0287 35.3555 24.9542 35.208 24.7998C35.0591 24.652 34.9855 24.4444 35.008 24.2358L35.3869 20.8359C35.4028 20.7648 35.4229 20.6946 35.447 20.6259L39.3859 24.5649C39.321 24.5789 39.2619 24.6109 39.1939 24.6189L35.78 24.9998ZM41.0189 23.3668L36.6429 18.9898L47.5428 8.08997L51.9167 12.4629L41.0189 23.3668ZM48.9529 6.6749L50.4358 5.19291L54.8078 9.56584L53.3258 11.0488L48.9529 6.6749ZM2.00018 7.99994C2.00354 4.68766 4.68785 2.00324 8.00013 1.99998H10.0001C10.5524 1.99998 11.0002 2.44768 11.0002 2.99993V42.9996C11.0002 43.5518 10.5525 43.9995 10.0001 43.9995H8.00013C5.7028 43.9988 3.51653 44.9877 2.00018 46.7135V7.99994ZM56.9998 15.9999C57.552 15.9999 57.9998 16.4476 57.9998 16.9999V56.9996C57.9998 57.5518 57.5521 57.9996 56.9998 57.9996H8.29017C4.98895 58.0551 2.22339 55.5137 2.00018 52.2196V51.9996C2.00354 48.6873 4.68785 46.003 8.00013 45.9996H10.0001C11.6569 45.9996 13 44.6565 13 42.9997V15.9999H36.7998L34.5289 18.2708C33.8949 18.8955 33.496 19.72 33.3999 20.6048L33.0209 24.0117C32.9897 24.344 33.0213 24.6791 33.1139 24.9997H16.0001C15.4478 24.9997 15 25.4474 15 25.9998C15 26.552 15.4477 26.9997 16.0001 26.9997H19.0001V53.9996C19.0001 54.5518 19.4478 54.9996 20.0001 54.9996C20.5525 54.9996 21.0002 54.5519 21.0002 53.9996V39.9997H32V47.9996H25C24.4478 47.9996 24.0001 48.4473 24.0001 48.9995C24.0001 49.5518 24.4478 49.9996 25 49.9996H44.9999C46.1045 49.9996 46.9999 49.1042 46.9999 47.9996V32.9998C46.9999 32.4475 46.5522 31.9997 45.9999 31.9997C45.4477 31.9997 44.9999 32.4474 44.9999 32.9998V37.9997H21.0001V26.9998H35.708C35.8055 27 35.9031 26.9947 36 26.9838L39.4169 26.5949C40.2842 26.4964 41.0937 26.111 41.7169 25.4999L51.2049 16H56.9998V15.9999ZM44.9999 39.9997V47.9996H33.9999V39.9997H44.9999ZM57.6897 6.68191L56.2218 8.15088L51.8498 3.77893L53.3188 2.30997C53.511 2.11272 53.7744 2.00097 54.0498 1.99998C54.3302 2.00068 54.5985 2.11381 54.7948 2.31402L57.6868 5.20002C57.8879 5.39805 58.0007 5.66874 57.9998 5.95099C57.9989 6.22642 57.8872 6.4899 57.6897 6.68191Z" fill="#039BE5"/>
</g>
<defs>
<clipPath id="clip0_16_345">
<rect width="60" height="60" fill="white"/>
</clipPath>
</defs>
</svg>
