<svg width="60" height="60" viewBox="0 0 60 60" fill="none" xmlns="http://www.w3.org/2000/svg">
<path d="M4.7562 41.6068C4.41575 41.6068 4.13948 41.3309 4.13948 40.9904L4.13958 32.0929C4.13958 30.4232 5.49794 29.065 7.1669 29.065L21.439 29.0649C21.7795 29.0649 22.0556 29.3411 22.0556 29.6816C22.0557 30.0221 21.7794 30.2982 21.439 30.2982L7.16687 30.2982C6.17772 30.2982 5.37265 31.1033 5.37265 32.093L5.37275 40.9902C5.37275 41.3308 5.09645 41.607 4.75613 41.6068L4.7562 41.6068ZM11.4147 41.6068C11.0744 41.6068 10.7981 41.3309 10.7981 40.9904V38.7511C10.7981 37.0817 12.1566 35.7235 13.8255 35.7235L21.4391 35.7234C21.7796 35.7234 22.0557 35.9994 22.0557 36.34C22.0557 36.6806 21.7795 36.9566 21.439 36.9566L13.8256 36.9564C12.8364 36.9564 12.0313 37.7617 12.0313 38.7513V40.9902C12.0313 41.3308 11.7551 41.607 11.4147 41.6068V41.6068ZM9.00292 53.3756H7.16694C5.49809 53.3756 4.13948 52.0174 4.13948 50.3478L4.13959 45.606C4.13959 45.2651 4.41568 44.9894 4.7561 44.9894C5.09656 44.9894 5.37272 45.2654 5.37272 45.606L5.37283 50.3477C5.37283 51.3374 6.17772 52.1425 7.1669 52.1425L9.00292 52.1423C9.99311 52.1423 10.7981 51.3374 10.7981 50.3478V45.606C10.7981 45.2651 11.0743 44.9894 11.4147 44.9894C11.7552 44.9894 12.0313 45.2654 12.0313 45.606V50.3477C12.0313 52.0173 10.6728 53.3758 9.00292 53.3756L9.00292 53.3756Z" fill="#039BE5"/>
<path d="M48.5852 41.6068C48.2448 41.6068 47.9686 41.3309 47.9686 40.9904V38.7511C47.9686 37.7616 47.1635 36.9566 46.1744 36.9566L38.562 36.9564C38.2205 36.9567 37.9453 36.6806 37.9453 36.34C37.9454 35.9994 38.2204 35.7235 38.5619 35.7235L46.1745 35.7232C47.8444 35.7232 49.2018 37.0817 49.2018 38.7513V40.9902C49.2018 41.3308 48.9267 41.607 48.5852 41.6068ZM55.2438 41.6068C54.9034 41.6068 54.6272 41.3309 54.6272 40.9904V32.0929C54.6272 31.1031 53.8221 30.2982 52.833 30.2982L38.562 30.2982C38.2205 30.2982 37.9453 30.0221 37.9453 29.6816C37.9454 29.341 38.2204 29.065 38.5619 29.065L52.8331 29.0649C54.5019 29.0649 55.8604 30.4233 55.8604 32.093V40.9902C55.8604 41.3308 55.5842 41.607 55.2438 41.6068V41.6068ZM52.8331 53.3756H50.9971C49.3272 53.3756 47.9686 52.0174 47.9686 50.3478V45.606C47.9686 45.2651 48.2447 44.9894 48.5852 44.9894C48.9267 44.9894 49.2018 45.2654 49.2018 45.606V50.3477C49.2018 51.3374 50.0068 52.1425 50.9971 52.1425L52.8331 52.1423C53.8222 52.1423 54.6272 51.3374 54.6272 50.3478V45.606C54.6272 45.2651 54.9034 44.9894 55.2438 44.9894C55.5843 44.9894 55.8604 45.2654 55.8604 45.606V50.3477C55.8604 52.0173 54.5019 53.3758 52.8331 53.3756V53.3756Z" fill="#039BE5"/>
<path d="M26.6847 20.4371V24.7096C26.6847 24.9476 26.5465 25.1647 26.3313 25.2667C23.3553 26.6789 21.4326 29.7189 21.4326 33.0108C21.4327 37.7347 25.2758 41.5782 29.9999 41.5782C34.7242 41.578 38.5673 37.7349 38.5673 33.0108C38.5673 29.7187 36.6447 26.6791 33.6686 25.2667C33.4535 25.1646 33.3164 24.9478 33.3164 24.7097L33.3164 20.4371H26.6847L26.6847 20.4371ZM29.9999 42.8112C24.596 42.8112 20.1993 38.4148 20.1993 33.0108C20.1994 29.3766 22.2483 26.0114 25.4513 24.3286L25.4514 19.8205C25.4514 19.4799 25.7264 19.204 26.0679 19.204L33.933 19.2039C34.2735 19.2039 34.5496 19.4801 34.5496 19.8205V24.3286C37.7516 26.0112 39.8005 29.3766 39.8005 33.0108C39.8005 38.4149 35.4039 42.8114 29.9999 42.8112L29.9999 42.8112Z" fill="#039BE5"/>
<path d="M29.9999 28.4057C26.963 32.4527 27.0036 34.8683 27.3194 35.9727C27.7498 37.4851 29.0407 38.0164 30.0203 38.0067C30.9966 37.9996 32.2823 37.4509 32.6933 35.9266C32.9921 34.8233 33.0092 32.4157 29.9999 28.4057V28.4057ZM29.9979 39.24C28.1566 39.24 26.6417 38.0934 26.1332 36.3109C25.6494 34.6156 25.8442 31.6267 29.5171 27.0139C29.6349 26.8669 29.8126 26.7815 29.9999 26.7815C30.1884 26.7814 30.365 26.867 30.4827 27.0139C34.1215 31.5829 34.3409 34.5573 33.8848 36.248C33.3978 38.0523 31.884 39.2268 30.0299 39.2398C30.0193 39.2398 30.0085 39.24 29.9979 39.24L29.9979 39.24Z" fill="#039BE5"/>
<path d="M28.1159 20.4369C27.7754 20.4369 27.4992 20.1611 27.4992 19.8204L27.4993 11.9077C27.4993 11.5673 27.7754 11.2913 28.1158 11.2913C28.4564 11.2913 28.7324 11.5674 28.7324 11.9079L28.7325 19.8203C28.7325 20.1609 28.4563 20.437 28.1159 20.4369L28.1159 20.4369ZM31.8841 20.4369C31.5437 20.4369 31.2674 20.1611 31.2674 19.8204L31.2675 11.9077C31.2675 11.5673 31.5437 11.2913 31.8841 11.2913C32.2246 11.2913 32.5007 11.5674 32.5007 11.9079L32.5007 19.8203C32.5007 20.1609 32.2245 20.437 31.8841 20.4369L31.8841 20.4369Z" fill="#039BE5"/>
<path d="M20.1052 7.85799C19.1589 7.85799 18.3881 8.62818 18.3881 9.5747C18.3882 10.521 19.1588 11.2913 20.1052 11.2913H39.8948C40.8422 11.2913 41.6118 10.5212 41.6118 9.5747C41.6118 8.62807 40.8421 7.85803 39.8947 7.85803L20.1052 7.85799L20.1052 7.85799ZM39.8948 12.5243H20.1052C18.478 12.5243 17.1548 11.2013 17.1548 9.5747C17.1549 7.9481 18.478 6.62486 20.1052 6.62486L39.8948 6.62476C41.522 6.62476 42.8451 7.9481 42.8451 9.5747C42.8451 11.2012 41.5219 12.5245 39.8948 12.5243V12.5243Z" fill="#039BE5"/>
<path d="M4.3065 44.9893H11.8644V41.6068H4.3065V44.9893ZM12.481 46.2222H3.68985C3.3495 46.2222 3.0732 45.9464 3.0732 45.6059L3.07323 40.9902C3.07323 40.6498 3.3494 40.3737 3.68982 40.3737L12.481 40.3735C12.8213 40.3735 13.0975 40.6498 13.0975 40.9904L13.0976 45.6059C13.0976 45.9462 12.8213 46.2224 12.481 46.2223L12.481 46.2222Z" fill="#039BE5"/>
<path d="M48.1356 44.9893H55.6935V41.6068H48.1356V44.9893ZM56.3102 46.2222H47.519C47.1786 46.2222 46.9024 45.9464 46.9024 45.6059V40.9902C46.9024 40.6498 47.1786 40.3737 47.519 40.3737L56.3102 40.3735C56.6505 40.3735 56.9267 40.6498 56.9267 40.9904L56.9268 45.6059C56.9268 45.9462 56.6505 46.2224 56.3102 46.2223V46.2222Z" fill="#039BE5"/>
</svg>
