<svg width="60" height="60" viewBox="0 0 60 60" fill="none" xmlns="http://www.w3.org/2000/svg">
<path d="M59.8246 28.416L53.2509 10.7174C52.991 10.0175 52.4723 9.46012 51.7907 9.14758C51.1086 8.83563 50.3483 8.80633 49.6484 9.06578L45.2484 10.6997C43.8 11.2379 43.0591 12.8542 43.597 14.3027L43.6684 14.4948C42.6274 14.89 41.4656 14.4584 39.6898 13.7146C37.0382 12.6045 33.4418 11.1139 28.8763 13.9694C25.1708 11.663 22.2633 12.232 19.6883 12.7447C18.3804 13.0046 17.1346 13.2493 15.848 13.1161C15.8118 12.778 15.7191 12.4449 15.5591 12.1323C15.217 11.4646 14.6374 10.9706 13.9273 10.7414L9.46066 9.30063C8.75015 9.07153 7.99113 9.13387 7.32363 9.47512C6.65613 9.81719 6.16207 10.3968 5.9332 11.107L0.135583 29.0751C-0.338675 30.5457 0.471794 32.1279 1.9425 32.6022L6.40898 34.0435C6.69082 34.1345 6.98015 34.1796 7.26832 34.1796C7.70695 34.1796 8.14301 34.0751 8.54578 33.869C8.79457 33.7415 9.00961 33.5717 9.20543 33.3837C9.23297 33.5196 9.26988 33.6541 9.30316 33.7891L8.18496 35.8796C7.70543 36.7766 7.6125 37.8644 7.93054 38.8635C8.24015 39.8364 8.89312 40.6134 9.74953 41.0412C10.4959 41.4406 11.3181 41.5654 12.0988 41.4503C11.8758 42.1899 11.88 43.0009 12.1218 43.761C12.4314 44.7339 13.0843 45.5111 13.9407 45.9389C14.8365 46.418 15.8677 46.518 16.8448 46.2224C17.2351 46.1039 17.5978 45.9282 17.9229 45.7022C18.2365 46.66 18.8844 47.4244 19.7311 47.8475C20.6266 48.3265 21.6578 48.4265 22.6349 48.1309C22.8518 48.065 23.0604 47.9815 23.2583 47.8816C23.5521 49.0611 24.3908 50.1115 25.4362 50.6707C25.9356 50.9376 26.5236 51.1096 27.1341 51.1096C28.2434 51.1096 29.4262 50.5411 30.2819 48.9416L30.4488 48.6295C30.5139 48.6634 30.5786 48.6975 30.638 48.7286L31.0842 48.9613C31.6308 49.2427 32.165 49.3667 32.6673 49.3667C33.9204 49.3667 34.973 48.5944 35.5111 47.5688C35.8816 46.8631 36.0121 46.024 35.8323 45.2096C36.2844 45.233 36.7416 45.1792 37.1884 45.0439C38.1919 44.7398 39.0154 44.0661 39.5071 43.1467C39.9043 42.404 40.0481 41.5703 39.9284 40.7481C40.7677 41.0965 41.6959 41.1419 42.5811 40.8738C43.5933 40.5671 44.4239 39.8871 44.9198 38.96C45.3252 38.2016 45.4691 37.3495 45.3403 36.5107C46.7082 37.056 48.0281 36.8066 48.9445 35.8026C49.8736 34.785 50.186 33.2261 49.8386 31.835C49.9104 31.8092 49.9832 31.783 50.064 31.754L50.0769 31.7494L50.1707 32.0016C50.5898 33.1294 51.6627 33.828 52.8007 33.828C53.1243 33.828 53.4528 33.7717 53.7732 33.6528L58.1729 32.0188C59.6216 31.4807 60.3625 29.8647 59.8246 28.416ZM8.39332 31.7391C8.29699 32.0373 8.08875 32.2812 7.80656 32.4256C7.5239 32.57 7.20457 32.5966 6.90679 32.5006L2.44008 31.0589C1.82039 30.8591 1.47879 30.1925 1.67859 29.5728L7.47644 11.6048C7.57254 11.3068 7.78078 11.0629 8.06285 10.9185C8.23336 10.8312 8.41781 10.7868 8.60285 10.7868C8.72379 10.7868 8.84461 10.8055 8.96238 10.8435C8.96261 10.8435 8.96262 10.8435 8.96262 10.8438L13.4293 12.2848C13.7273 12.3809 13.9712 12.5891 14.1156 12.8712C14.26 13.1534 14.2866 13.4727 14.1906 13.771L9.56203 28.1168C9.54176 28.156 9.52219 28.1961 9.50824 28.2394C9.46758 28.3648 9.43617 28.4917 9.40043 28.6179L8.39332 31.7391ZM10.4945 39.6011C10.0131 39.3606 9.65121 38.9241 9.47578 38.3719C9.28969 37.7873 9.34043 37.1576 9.61488 36.6445L10.8782 34.2825C10.8784 34.2823 10.8787 34.2821 10.8789 34.2817L11.4823 33.1534C12.0444 32.103 13.347 31.697 14.404 32.2305C15.0974 32.7153 16.1374 33.7462 15.3483 35.2213L14.9183 36.0252L13.4794 38.7155C12.9084 39.7786 11.5793 40.1819 10.4945 39.6011ZM17.6723 43.61C17.3979 44.1236 16.9368 44.5002 16.374 44.6707C15.8116 44.8413 15.2188 44.7837 14.6857 44.4989C14.2043 44.2585 13.8424 43.8217 13.667 43.2695C13.4809 42.6852 13.5319 42.0555 13.8063 41.5424L14.9093 39.4806L16.3482 36.7904C16.6227 36.277 17.0838 35.9004 17.6462 35.7299C18.2089 35.5589 18.8012 35.6167 19.3151 35.8914C19.8285 36.1659 20.205 36.627 20.3755 37.1897C20.546 37.7521 20.4885 38.345 20.2137 38.8586L19.8096 39.6145C19.8094 39.6153 19.8088 39.616 19.8083 39.6168L18.1666 42.6861C18.1666 42.6863 18.1666 42.6863 18.1664 42.6865L17.6723 43.61ZM22.1644 46.5791C21.6016 46.7496 21.0094 46.6921 20.4761 46.4073C19.9946 46.1669 19.633 45.7304 19.4573 45.1783C19.2718 44.5945 19.322 43.9661 19.5954 43.4533L19.5967 43.4509L21.2384 40.3817C21.2385 40.3813 21.2386 40.381 21.2387 40.3806L21.2396 40.3791C21.5145 39.8668 21.975 39.4913 22.5366 39.321C23.0987 39.1497 23.6916 39.2076 24.2051 39.4825C25.2708 40.0526 25.6741 41.3836 25.1043 42.4493L24.2835 43.9841L23.5559 45.3445C23.5556 45.3449 23.5553 45.3455 23.555 45.346L23.4627 45.5186C23.1882 46.0318 22.7269 46.4086 22.1644 46.5791ZM26.201 49.2408C25.1381 48.6723 24.3776 47.2463 24.9859 46.109L25.7135 44.7487L25.7143 44.7468C25.998 44.2179 26.5024 43.793 27.0987 43.5812C27.6939 43.3696 28.2914 43.3979 28.7817 43.6601C29.8501 44.2313 30.0225 44.7311 30.0588 45.0573C30.1143 45.5506 29.9054 46.2065 29.3827 47.1838C29.3823 47.1847 29.3821 47.1855 29.3817 47.1862L28.8519 48.1768C27.9545 49.8561 26.8062 49.5641 26.201 49.2408ZM34.0753 46.8156C33.6929 47.5454 32.8494 48.0463 31.8264 47.52L31.3919 47.2933C31.3201 47.2553 31.2531 47.2202 31.1909 47.1877C31.5192 46.4574 31.7585 45.6638 31.6704 44.877C31.571 43.9898 31.0787 43.2498 30.1855 42.6258L33.3787 44.3406C34.4459 45.0899 34.4422 46.1166 34.0753 46.8156ZM47.7469 34.7095C47.2248 35.2819 46.5082 35.3304 45.6164 34.853L43.3038 33.6162C43.3022 33.6154 43.3007 33.6146 43.299 33.6139C43.2753 33.6012 43.2506 33.5939 43.2264 33.5839L35.7694 29.5361C35.3767 29.322 34.8839 29.4682 34.6702 29.862C34.4566 30.2555 34.6023 30.7475 34.9961 30.9612L42.6108 35.0947C43.1148 35.3902 43.4891 35.8551 43.6614 36.4227C43.8424 37.0203 43.7815 37.6497 43.4896 38.1953C43.1979 38.7408 42.708 39.141 42.1105 39.3221C41.5119 39.5029 40.883 39.4422 40.3379 39.1505L38.0387 37.9207C37.9987 37.8882 37.9556 37.8584 37.9085 37.8332L32.3597 34.8664C31.9643 34.6547 31.4734 34.8046 31.2626 35.1992C31.0514 35.594 31.2002 36.0852 31.5954 36.2963L37.0048 39.1886C37.0448 39.2214 37.0883 39.2513 37.1358 39.2766C37.6734 39.5641 38.0678 40.0465 38.2461 40.6356C38.4245 41.2245 38.3644 41.8447 38.0769 42.3821C37.7895 42.9197 37.3068 43.3137 36.7179 43.4924C36.1294 43.6705 35.5089 43.6107 34.9714 43.3232L33.7977 42.6955C33.7386 42.664 33.6772 42.643 33.6152 42.6272L28.8778 40.0834C28.4832 39.8702 27.9915 40.0193 27.7801 40.4141C27.5681 40.8085 27.7162 41.3002 28.1108 41.5118L29.1064 42.0464C28.4305 41.7973 27.6901 41.7502 26.9493 41.9347C27.1586 40.3996 26.4135 38.8245 24.9697 38.0522C24.0826 37.5777 23.0618 37.4745 22.0929 37.7609C22.086 37.4125 22.0311 37.0626 21.9272 36.7192C21.6311 35.7419 20.9747 34.9401 20.0794 34.4613C19.1794 33.9803 18.1712 33.8975 17.2588 34.1519C17.2432 32.7745 16.3689 31.6289 15.3277 30.8979C15.292 30.8705 15.2541 30.8459 15.2136 30.8243C13.6591 29.9932 11.7804 30.3524 10.6289 31.5823C10.6103 30.7391 10.7256 29.8925 10.9598 29.0638L15.5875 14.7209C17.1518 14.902 18.5992 14.615 20.0041 14.3349C22.3399 13.8704 24.5583 13.4288 27.4248 14.9913C26.8003 15.4885 26.1722 16.0559 25.5477 16.6867C25.0534 17.1866 24.545 17.6857 24.0491 18.1727C22.2411 19.9484 20.6797 21.482 20.2332 22.5705C20.1253 22.8336 20.163 23.1339 20.3327 23.362C23.5598 27.702 27.4707 26.2293 30.6119 25.0464C32.9669 24.1593 35.0009 23.3929 36.6211 24.675C36.6517 24.6993 36.6839 24.7212 36.7177 24.7408C37.4914 25.1891 38.5573 25.7154 39.7914 26.3249C42.7751 27.7987 46.8615 29.817 47.9175 31.422C48.6271 32.4998 48.402 33.9918 47.7469 34.7095ZM49.1462 30.3611C47.7307 28.4414 43.7406 26.4668 40.5098 24.8714C39.328 24.2876 38.3037 23.782 37.5789 23.3657C35.2515 21.567 32.603 22.5641 30.0408 23.5291C27.004 24.6721 24.3634 25.6661 21.9513 22.7964C22.5179 21.9497 23.8709 20.6211 25.1855 19.33C25.6869 18.8375 26.2005 18.3329 26.7005 17.8277C27.5667 16.9527 28.4336 16.2168 29.2787 15.6352C33.3632 12.8264 36.3911 14.092 39.0633 15.2103C40.3127 15.7334 41.5881 16.2673 42.8496 16.2673C43.313 16.2673 43.7739 16.1827 44.2316 16.0117L49.5122 30.2294C49.3891 30.2737 49.2646 30.3186 49.1462 30.3611ZM57.6087 30.4987L53.209 32.1326C52.5967 32.3586 51.917 32.0471 51.6906 31.4369L45.1172 13.7377C45.0082 13.4443 45.0209 13.1241 45.1528 12.8358C45.285 12.5477 45.5194 12.3289 45.8129 12.2198L50.2126 10.5858C50.3448 10.5367 50.4824 10.5122 50.6198 10.5122C50.7882 10.5122 50.9564 10.5489 51.115 10.6214C51.4029 10.7534 51.6217 10.988 51.7307 11.2818L58.3043 28.9805C58.5311 29.5911 58.2189 30.2719 57.6087 30.4987Z" fill="#039BE5"/>
</svg>
