<svg width="42" height="46" viewBox="0 0 42 46" fill="none" xmlns="http://www.w3.org/2000/svg">
<path d="M20.9064 20.8666C20.0595 20.8666 19.373 21.5531 19.373 22.3999C19.3729 23.0122 19.7327 23.5392 20.2516 23.785V25.649C20.2516 26.0105 20.5447 26.3037 20.9063 26.3037C21.2679 26.3037 21.561 26.0106 21.561 25.649V23.785C22.0799 23.5392 22.4397 23.0122 22.4397 22.3999C22.4397 21.5531 21.7532 20.8666 20.9064 20.8666Z" fill="#FF5200" fill-opacity="0.866667"/>
<path d="M37.2451 9.98601C34.4268 8.87078 32.1898 6.81677 30.9463 4.2025C30.6081 3.49157 29.8772 3.0321 29.084 3.0321H12.6783C11.8852 3.0321 11.1542 3.49148 10.816 4.2025C9.57258 6.81677 7.33556 8.87078 4.51725 9.98601C3.72672 10.2988 3.21596 11.0524 3.21596 11.9058V15.8959C3.21596 21.1265 4.74123 26.2935 7.62692 30.8386C10.5406 35.4281 14.7628 39.2636 19.8365 41.9303L19.9192 41.9738C20.2204 42.1321 20.5508 42.2113 20.8812 42.2113C21.2115 42.2113 21.5419 42.1321 21.843 41.9739L21.9259 41.9303C26.9998 39.2635 31.2218 35.4281 34.1356 30.8386C37.0212 26.2935 38.5465 21.1265 38.5465 15.8959V11.9058C38.5465 11.0523 38.0355 10.2988 37.2451 9.98601ZM37.2372 15.896C37.2372 20.8776 35.7824 25.8019 33.0302 30.1369C30.2389 34.5335 26.1884 38.2109 21.317 40.7714L21.234 40.8149C21.0131 40.9312 20.7493 40.9311 20.5283 40.8149L20.4457 40.7715C15.5741 38.211 11.5235 34.5336 8.73209 30.1369C5.97991 25.802 4.52516 20.8776 4.52516 15.8959V11.9058C4.52516 11.593 4.71114 11.3173 4.9989 11.2035C8.12637 9.96597 10.6121 7.67936 11.9983 4.76492C12.1206 4.5077 12.3875 4.34149 12.6782 4.34149H29.084C29.3748 4.34149 29.6416 4.5077 29.764 4.76492C31.1503 7.67936 33.6361 9.96597 36.7634 11.2036C37.0512 11.3174 37.2372 11.5931 37.2372 11.9059V15.896Z" fill="#FF5200" fill-opacity="0.866667"/>
<path d="M40.5274 22.1087C40.1748 22.0289 39.8242 22.2502 39.7446 22.6029C37.7508 31.4235 31.6785 39.0731 23.0844 43.5902L21.0872 44.6399C20.9583 44.7076 20.8043 44.7076 20.6754 44.6399L18.6782 43.5902C10.0707 39.066 3.99526 31.4032 2.0098 22.5667C1.93065 22.214 1.58026 21.9922 1.22762 22.0715C0.874898 22.1507 0.653163 22.501 0.732405 22.8537C2.80205 32.0655 9.12103 40.046 18.0691 44.7491L20.0662 45.7988C20.3215 45.9328 20.6014 46 20.8813 46C21.1612 46 21.4412 45.9328 21.6964 45.7987L23.6935 44.749C32.6275 40.0533 38.9433 32.0866 41.0218 22.8915C41.1014 22.5389 40.8801 22.1884 40.5274 22.1087Z" fill="#FF5200" fill-opacity="0.866667"/>
<path d="M40.2088 7.4909C36.713 7.12209 33.9643 4.66837 33.5244 1.52402C33.4028 0.655141 32.6561 0 31.7875 0H9.9749C9.10638 0 8.35969 0.655141 8.23813 1.52402C7.79808 4.66846 5.0494 7.12209 1.55376 7.4909C0.667988 7.58434 0 8.33265 0 9.23145V16.2612C0 17.2827 0.0529179 18.3155 0.157316 19.3309C0.191996 19.6678 0.476262 19.9186 0.807785 19.9186C0.830156 19.9186 0.852797 19.9175 0.875527 19.9151C1.23517 19.8782 1.4968 19.5566 1.45978 19.197C1.35996 18.2259 1.30929 17.2381 1.30929 16.2612V9.23145C1.30929 9.00818 1.47703 8.81547 1.69113 8.79292C5.78585 8.36095 9.01124 5.44642 9.53485 1.70541C9.56701 1.47586 9.752 1.30929 9.9749 1.30929H31.7874C32.0103 1.30929 32.1955 1.47586 32.2276 1.70541C32.751 5.44642 35.9765 8.36086 40.0712 8.79292C40.2853 8.81547 40.453 9.00818 40.453 9.23145V16.2612C40.453 17.2278 40.4035 18.2053 40.3057 19.1667C40.2691 19.5264 40.5311 19.8477 40.8908 19.8842C41.2502 19.9211 41.5717 19.6588 41.6083 19.2992C41.7106 18.294 41.7623 17.2719 41.7623 16.2612V9.23145C41.7624 8.33265 41.0945 7.58434 40.2088 7.4909Z" fill="#FF5200" fill-opacity="0.866667"/>
<path d="M28.3795 16.3395H27.3031V13.2146C27.3031 9.68739 24.4335 6.81787 20.9063 6.81787C17.3791 6.81787 14.5095 9.68739 14.5095 13.2146V16.3395H13.4332C12.2851 16.3395 11.3511 17.2735 11.3511 18.4215V27.7949C11.3511 28.9429 12.2851 29.8769 13.4332 29.8769H28.3795C29.5275 29.8769 30.4615 28.9429 30.4615 27.7949V18.4215C30.4615 17.2735 29.5275 16.3395 28.3795 16.3395ZM15.8189 13.2147C15.8189 10.4095 18.1011 8.12725 20.9064 8.12725C23.7117 8.12725 25.9939 10.4095 25.9939 13.2147V16.3396H15.8189V13.2147ZM29.1522 27.7949C29.1522 28.2209 28.8055 28.5676 28.3795 28.5676H13.4332C13.007 28.5676 12.6604 28.2209 12.6604 27.7949V18.4215C12.6604 17.9955 13.0071 17.6488 13.4332 17.6488H28.3795C28.8055 17.6488 29.1522 17.9954 29.1522 18.4215V27.7949Z" fill="#FF5200" fill-opacity="0.866667"/>
</svg>
