<svg width="46" height="46" viewBox="0 0 46 46" fill="none" xmlns="http://www.w3.org/2000/svg">
<path d="M40.0164 29.1762C39.4871 28.6744 38.7917 28.3848 38.0627 28.3627C37.3337 28.3406 36.622 28.5874 36.0633 29.0562L29.9884 33.713C29.6435 33.9766 29.2619 34.1884 28.8556 34.3415C29.0788 33.9069 29.1864 33.4222 29.1682 32.9339C29.15 32.4457 29.0065 31.9704 28.7516 31.5536C28.4966 31.1368 28.1388 30.7926 27.7125 30.554C27.2861 30.3153 26.8056 30.1904 26.317 30.1911H19.0993C18.5372 29.5025 17.8439 28.9325 17.0596 28.514C16.2754 28.0956 15.4159 27.8371 14.531 27.7534C13.4236 27.6561 12.3113 27.8735 11.3221 28.3806V26.0349C11.3221 25.9523 11.3059 25.8705 11.2743 25.7942C11.2427 25.7179 11.1964 25.6485 11.138 25.5901C11.0796 25.5317 11.0102 25.4854 10.9339 25.4538C10.8576 25.4222 10.7758 25.406 10.6932 25.406H5.67236C5.58976 25.406 5.50796 25.4222 5.43164 25.4538C5.35531 25.4854 5.28596 25.5317 5.22755 25.5901C5.16915 25.6485 5.12282 25.7179 5.09123 25.7942C5.05964 25.8705 5.04341 25.9523 5.04346 26.0349V42.4026C5.04341 42.4852 5.05964 42.5671 5.09123 42.6434C5.12282 42.7197 5.16915 42.789 5.22755 42.8475C5.28596 42.9059 5.35531 42.9522 5.43164 42.9838C5.50796 43.0154 5.58976 43.0316 5.67236 43.0316H10.6932C10.7758 43.0316 10.8576 43.0154 10.9339 42.9838C11.0102 42.9522 11.0796 42.9059 11.138 42.8475C11.1964 42.789 11.2427 42.7197 11.2743 42.6434C11.3059 42.5671 11.3221 42.4852 11.3221 42.4026V41.0978L21.5668 43.12C23.4085 43.4886 25.31 43.432 27.1265 42.9545C28.943 42.4769 30.6265 41.591 32.0487 40.3643L39.9165 33.6181C40.2346 33.3452 40.4916 33.0084 40.671 32.6296C40.8503 32.2508 40.9478 31.8384 40.9572 31.4194C40.9667 31.0004 40.8878 30.5841 40.7257 30.1976C40.5636 29.8112 40.3219 29.4631 40.0164 29.1762ZM10.0643 41.7737H6.30127V26.6638H10.0643V41.7737ZM39.0968 32.6643L31.2297 39.4098C29.9515 40.5121 28.4386 41.3081 26.8063 41.7373C25.1739 42.1664 23.4651 42.2174 21.8101 41.8862L11.3221 39.8155V29.8641C12.218 29.2099 13.3217 28.9051 14.4264 29.0066C15.4535 29.0921 16.9628 29.5456 18.3177 31.2157C18.3766 31.2884 18.451 31.3471 18.5355 31.3873C18.62 31.4276 18.7125 31.4485 18.8061 31.4485H26.317C26.7393 31.4485 27.1442 31.6163 27.4428 31.9148C27.7413 32.2134 27.9091 32.6183 27.9091 33.0406C27.9091 33.4628 27.7413 33.8677 27.4428 34.1663C27.1442 34.4649 26.7393 34.6326 26.317 34.6326C26.3109 34.6326 26.3055 34.6326 26.2994 34.6326H18.8032C18.6364 34.6326 18.4764 34.6989 18.3585 34.8168C18.2406 34.9347 18.1743 35.0947 18.1743 35.2615C18.1743 35.4283 18.2406 35.5883 18.3585 35.7062C18.4764 35.8242 18.6364 35.8904 18.8032 35.8904H27.2658C28.5253 35.8887 29.7497 35.4745 30.7517 34.7113L36.8499 30.0337C37.1987 29.736 37.6515 29.589 38.1087 29.6251C38.5658 29.6613 38.9899 29.8775 39.2876 30.2263C39.5853 30.5751 39.7322 31.0279 39.6961 31.485C39.66 31.9422 39.4438 32.3662 39.095 32.6639L39.0968 32.6643Z" fill="#FF5200" fill-opacity="0.866667"/>
<path d="M20.176 23.8532H22.9791C22.9982 23.8532 23.0165 23.8608 23.03 23.8742C23.0434 23.8877 23.051 23.906 23.051 23.9251V26.7282C23.051 27.0808 23.1911 27.419 23.4405 27.6684C23.6898 27.9178 24.0281 28.0579 24.3807 28.0579H25.8577C26.0324 28.0579 26.2053 28.0235 26.3666 27.9566C26.5279 27.8898 26.6745 27.7919 26.798 27.6684C26.9214 27.5449 27.0194 27.3984 27.0862 27.237C27.153 27.0757 27.1874 26.9028 27.1874 26.7282V23.9251C27.1874 23.906 27.195 23.8877 27.2085 23.8742C27.222 23.8608 27.2402 23.8532 27.2593 23.8532H30.0624C30.4151 23.8532 30.7533 23.7131 31.0027 23.4637C31.252 23.2144 31.3921 22.8761 31.3921 22.5235V21.0465C31.3921 20.6938 31.252 20.3556 31.0027 20.1062C30.7533 19.8569 30.4151 19.7168 30.0624 19.7168H27.2593C27.2402 19.7168 27.222 19.7092 27.2085 19.6957C27.195 19.6822 27.1874 19.664 27.1874 19.6449V16.8418C27.1874 16.6672 27.153 16.4942 27.0862 16.3329C27.0194 16.1716 26.9214 16.025 26.798 15.9015C26.6745 15.7781 26.5279 15.6801 26.3666 15.6133C26.2053 15.5465 26.0324 15.5121 25.8577 15.5121H24.38C24.0273 15.5121 23.6891 15.6522 23.4398 15.9015C23.1904 16.1509 23.0503 16.4891 23.0503 16.8418V19.6449C23.0503 19.664 23.0427 19.6822 23.0292 19.6957C23.0158 19.7092 22.9975 19.7168 22.9784 19.7168H20.1753C19.8226 19.7168 19.4844 19.8569 19.2351 20.1062C18.9857 20.3556 18.8456 20.6938 18.8456 21.0465V22.5235C18.8456 22.6982 18.88 22.8711 18.9469 23.0325C19.0138 23.1939 19.1118 23.3405 19.2353 23.464C19.3589 23.5875 19.5055 23.6854 19.6669 23.7522C19.8284 23.8189 20.0013 23.8533 20.176 23.8532ZM20.1041 21.0468C20.1041 21.0278 20.1117 21.0095 20.1252 20.996C20.1387 20.9825 20.157 20.9749 20.176 20.9749H22.9791C23.3318 20.9749 23.67 20.8349 23.9194 20.5855C24.1687 20.3361 24.3088 19.9979 24.3088 19.6453V16.8421C24.3088 16.8231 24.3164 16.8048 24.3299 16.7913C24.3434 16.7778 24.3616 16.7703 24.3807 16.7703H25.8577C25.8768 16.7703 25.8951 16.7778 25.9086 16.7913C25.922 16.8048 25.9296 16.8231 25.9296 16.8421V19.6453C25.9296 19.9979 26.0697 20.3361 26.3191 20.5855C26.5684 20.8349 26.9066 20.9749 27.2593 20.9749H30.0624C30.0815 20.9749 30.0998 20.9825 30.1132 20.996C30.1267 21.0095 30.1343 21.0278 30.1343 21.0468V22.5238C30.1343 22.5429 30.1267 22.5612 30.1132 22.5747C30.0998 22.5882 30.0815 22.5957 30.0624 22.5957H27.2593C26.9066 22.5957 26.5684 22.7358 26.3191 22.9852C26.0697 23.2345 25.9296 23.5728 25.9296 23.9254V26.7285C25.9296 26.7476 25.922 26.7659 25.9086 26.7794C25.8951 26.7928 25.8768 26.8004 25.8577 26.8004H24.38C24.3609 26.8004 24.3426 26.7928 24.3292 26.7794C24.3157 26.7659 24.3081 26.7476 24.3081 26.7285V23.9254C24.3081 23.5728 24.168 23.2345 23.9187 22.9852C23.6693 22.7358 23.3311 22.5957 22.9784 22.5957H20.1753C20.1562 22.5957 20.138 22.5882 20.1245 22.5747C20.111 22.5612 20.1034 22.5429 20.1034 22.5238L20.1041 21.0468Z" fill="#FF5200" fill-opacity="0.866667"/>
<path d="M7.20185 15.7766H10.005C10.024 15.7766 10.0423 15.7842 10.0558 15.7976C10.0693 15.8111 10.0768 15.8294 10.0768 15.8485V18.6516C10.0768 19.0042 10.2169 19.3425 10.4663 19.5918C10.7157 19.8412 11.0539 19.9813 11.4065 19.9813H12.8836C13.0582 19.9813 13.2311 19.9469 13.3924 19.8801C13.5537 19.8132 13.7003 19.7153 13.8238 19.5918C13.9473 19.4683 14.0452 19.3218 14.112 19.1604C14.1789 18.9991 14.2133 18.8262 14.2133 18.6516V15.8485C14.2133 15.8294 14.2208 15.8111 14.2343 15.7976C14.2478 15.7842 14.2661 15.7766 14.2851 15.7766H17.0883C17.2629 15.7766 17.4358 15.7422 17.5971 15.6754C17.7584 15.6085 17.905 15.5106 18.0285 15.3871C18.152 15.2637 18.2499 15.1171 18.3167 14.9557C18.3835 14.7944 18.4179 14.6215 18.4179 14.4469V12.9699C18.4179 12.6172 18.2779 12.279 18.0285 12.0296C17.7791 11.7803 17.4409 11.6402 17.0883 11.6402H14.2851C14.2661 11.6402 14.2478 11.6326 14.2343 11.6191C14.2208 11.6056 14.2133 11.5874 14.2133 11.5683V8.76877C14.2133 8.59416 14.1789 8.42125 14.112 8.25992C14.0452 8.0986 13.9473 7.95202 13.8238 7.82854C13.7003 7.70507 13.5537 7.60713 13.3924 7.5403C13.2311 7.47348 13.0582 7.43909 12.8836 7.43909H11.4065C11.0539 7.43909 10.7157 7.57918 10.4663 7.82854C10.2169 8.07791 10.0768 8.41612 10.0768 8.76877V11.5719C10.0768 11.5813 10.075 11.5907 10.0714 11.5994C10.0678 11.6081 10.0625 11.616 10.0558 11.6227C10.0491 11.6294 10.0412 11.6347 10.0325 11.6383C10.0238 11.6419 10.0144 11.6438 10.005 11.6438H7.20185C7.02723 11.6438 6.85432 11.6782 6.693 11.745C6.53167 11.8118 6.38509 11.9098 6.26162 12.0332C6.13815 12.1567 6.0402 12.3033 5.97338 12.4646C5.90655 12.6259 5.87216 12.7988 5.87216 12.9735V14.4469C5.87216 14.7996 6.01225 15.1378 6.26162 15.3871C6.51098 15.6365 6.84919 15.7766 7.20185 15.7766ZM7.12997 12.9706C7.12997 12.9515 7.13755 12.9332 7.15103 12.9198C7.16451 12.9063 7.18279 12.8987 7.20185 12.8987H10.005C10.3576 12.8987 10.6958 12.7586 10.9452 12.5093C11.1946 12.2599 11.3347 11.9217 11.3347 11.569V8.76877C11.3347 8.74971 11.3422 8.73143 11.3557 8.71795C11.3692 8.70447 11.3875 8.6969 11.4065 8.6969H12.8836C12.9026 8.6969 12.9209 8.70447 12.9344 8.71795C12.9479 8.73143 12.9554 8.74971 12.9554 8.76877V11.5719C12.9554 11.7465 12.9898 11.9194 13.0567 12.0807C13.1235 12.2421 13.2214 12.3887 13.3449 12.5121C13.4684 12.6356 13.615 12.7335 13.7763 12.8004C13.9376 12.8672 14.1105 12.9016 14.2851 12.9016H17.0883C17.1073 12.9016 17.1256 12.9092 17.1391 12.9226C17.1526 12.9361 17.1601 12.9544 17.1601 12.9735V14.4469C17.1601 14.466 17.1526 14.4842 17.1391 14.4977C17.1256 14.5112 17.1073 14.5188 17.0883 14.5188H14.2851C14.1105 14.5188 13.9376 14.5532 13.7763 14.62C13.615 14.6868 13.4684 14.7848 13.3449 14.9082C13.2214 15.0317 13.1235 15.1783 13.0567 15.3396C12.9898 15.5009 12.9554 15.6738 12.9554 15.8485V18.6516C12.9554 18.6706 12.9479 18.6889 12.9344 18.7024C12.9209 18.7159 12.9026 18.7235 12.8836 18.7235H11.4065C11.3875 18.7235 11.3692 18.7159 11.3557 18.7024C11.3422 18.6889 11.3347 18.6706 11.3347 18.6516V15.8485C11.3347 15.4958 11.1946 15.1576 10.9452 14.9082C10.6958 14.6589 10.3576 14.5188 10.005 14.5188H7.20185C7.19241 14.5188 7.18306 14.5169 7.17434 14.5133C7.16562 14.5097 7.1577 14.5044 7.15103 14.4977C7.14435 14.491 7.13906 14.4831 7.13545 14.4744C7.13183 14.4657 7.12997 14.4563 7.12997 14.4469V12.9706Z" fill="#FF5200" fill-opacity="0.866667"/>
<path d="M28.9132 10.9835H31.7163C31.7353 10.9835 31.7536 10.9911 31.7671 11.0046C31.7806 11.0181 31.7882 11.0364 31.7882 11.0554V13.8585C31.7882 14.2112 31.9282 14.5494 32.1776 14.7988C32.427 15.0481 32.7652 15.1882 33.1178 15.1882H34.5949C34.9475 15.1882 35.2857 15.0481 35.5351 14.7988C35.7845 14.5494 35.9246 14.2112 35.9246 13.8585V11.0554C35.9246 11.0364 35.9321 11.0181 35.9456 11.0046C35.9591 10.9911 35.9774 10.9835 35.9964 10.9835H38.7996C38.9742 10.9835 39.1471 10.9492 39.3084 10.8823C39.4697 10.8155 39.6163 10.7176 39.7398 10.5941C39.8633 10.4706 39.9612 10.324 40.028 10.1627C40.0949 10.0014 40.1292 9.82848 40.1292 9.65386V8.17683C40.1292 7.82418 39.9892 7.48596 39.7398 7.2366C39.4904 6.98724 39.1522 6.84714 38.7996 6.84714H35.9964C35.9774 6.84714 35.9591 6.83957 35.9456 6.82609C35.9321 6.81261 35.9246 6.79433 35.9246 6.77527V3.97214C35.9246 3.61949 35.7845 3.28128 35.5351 3.03191C35.2857 2.78255 34.9475 2.64246 34.5949 2.64246H33.1178C32.7652 2.64246 32.427 2.78255 32.1776 3.03191C31.9282 3.28128 31.7882 3.61949 31.7882 3.97214V6.77527C31.7882 6.79433 31.7806 6.81261 31.7671 6.82609C31.7536 6.83957 31.7353 6.84714 31.7163 6.84714H28.9132C28.7385 6.84714 28.5656 6.88154 28.4043 6.94836C28.243 7.01518 28.0964 7.11313 27.9729 7.2366C27.8495 7.36007 27.7515 7.50666 27.6847 7.66798C27.6179 7.82931 27.5835 8.00221 27.5835 8.17683V9.65386C27.5835 9.82848 27.6179 10.0014 27.6847 10.1627C27.7515 10.324 27.8495 10.4706 27.9729 10.5941C28.0964 10.7176 28.243 10.8155 28.4043 10.8823C28.5656 10.9492 28.7385 10.9835 28.9132 10.9835ZM28.8413 8.17719C28.8413 8.15813 28.8489 8.13985 28.8623 8.12637C28.8758 8.11289 28.8941 8.10532 28.9132 8.10532H31.7163C32.0689 8.10532 32.4071 7.96522 32.6565 7.71586C32.9059 7.46649 33.046 7.12828 33.046 6.77563V3.9725C33.046 3.95344 33.0535 3.93516 33.067 3.92168C33.0805 3.9082 33.0988 3.90063 33.1178 3.90063H34.5949C34.6139 3.90063 34.6322 3.9082 34.6457 3.92168C34.6592 3.93516 34.6667 3.95344 34.6667 3.9725V6.77563C34.6667 7.12828 34.8068 7.46649 35.0562 7.71586C35.3056 7.96522 35.6438 8.10532 35.9964 8.10532H38.7996C38.8186 8.10532 38.8369 8.11289 38.8504 8.12637C38.8639 8.13985 38.8714 8.15813 38.8714 8.17719V9.65422C38.8714 9.67328 38.8639 9.69157 38.8504 9.70504C38.8369 9.71852 38.8186 9.7261 38.7996 9.7261H35.9964C35.6438 9.7261 35.3056 9.86619 35.0562 10.1156C34.8068 10.3649 34.6667 10.7031 34.6667 11.0558V13.8589C34.6667 13.8683 34.6649 13.8777 34.6613 13.8864C34.6577 13.8951 34.6524 13.9031 34.6457 13.9097C34.639 13.9164 34.6311 13.9217 34.6224 13.9253C34.6137 13.9289 34.6043 13.9308 34.5949 13.9308H33.1178C33.1084 13.9308 33.0991 13.9289 33.0903 13.9253C33.0816 13.9217 33.0737 13.9164 33.067 13.9097C33.0603 13.9031 33.055 13.8951 33.0514 13.8864C33.0478 13.8777 33.046 13.8683 33.046 13.8589V11.0558C33.046 10.7031 32.9059 10.3649 32.6565 10.1156C32.4071 9.86619 32.0689 9.7261 31.7163 9.7261H28.9132C28.8941 9.7261 28.8758 9.71852 28.8623 9.70504C28.8489 9.69157 28.8413 9.67328 28.8413 9.65422V8.17719Z" fill="#FF5200" fill-opacity="0.866667"/>
</svg>
