<svg width="47" height="47" viewBox="0 0 47 47" fill="none" xmlns="http://www.w3.org/2000/svg">
<path d="M20.7114 31.2799L25.6408 27.1721C26.2855 26.6369 27.0589 26.2795 27.8843 26.1352C28.7097 25.991 29.5584 26.065 30.3464 26.3499L35.5237 28.2326C35.7756 28.3243 36.0417 28.3712 36.3098 28.371H46.0079V26.8375H41.4071V2.30035C41.4065 1.69047 41.1639 1.10577 40.7326 0.67452C40.3014 0.243269 39.7167 0.000689519 39.1068 0H6.90182C6.29194 0.000689519 5.70723 0.243269 5.27598 0.67452C4.84473 1.10577 4.60215 1.69047 4.60146 2.30035V26.8316L0.00131499 26.8281L0.000191682 28.3617L12.0192 28.3709H12.0212C12.2684 28.371 12.5139 28.3311 12.7484 28.2528L19.1769 26.11C19.2551 26.0839 19.3369 26.0707 19.4193 26.0707H24.567L19.7297 30.1018C19.4333 30.3475 19.1883 30.6492 19.0087 30.9897C18.8291 31.3302 18.7184 31.7028 18.6831 32.0862C18.6477 32.4696 18.6883 32.8561 18.8026 33.2238C18.9168 33.5914 19.1025 33.9329 19.349 34.2286C19.5954 34.5244 19.8978 34.7686 20.2388 34.9473C20.5798 35.126 20.9527 35.2357 21.3362 35.2701C21.7196 35.3044 22.1061 35.2628 22.4734 35.1475C22.8407 35.0323 23.1817 34.8457 23.4768 34.5985L26.0244 32.4755L32.8137 39.2648C32.8936 39.3446 32.957 39.4394 33.0003 39.5438C33.0436 39.6481 33.0659 39.7599 33.0659 39.8729C33.066 39.9859 33.0438 40.0977 33.0006 40.2021C32.9574 40.3065 32.894 40.4013 32.8141 40.4812C32.7343 40.5611 32.6394 40.6244 32.5351 40.6676C32.4307 40.7108 32.3188 40.7331 32.2059 40.733C32.0929 40.733 31.9811 40.7107 31.8767 40.6674C31.7724 40.6241 31.6776 40.5607 31.5978 40.4808L30.831 39.714L25.8469 34.7299L24.7624 35.8143L29.7465 40.7984C29.8265 40.8782 29.8899 40.973 29.9332 41.0773C29.9765 41.1817 29.9988 41.2935 29.9988 41.4065C29.9988 41.5194 29.9766 41.6313 29.9334 41.7357C29.8902 41.84 29.8269 41.9349 29.747 42.0148C29.6671 42.0946 29.5723 42.158 29.4679 42.2012C29.3636 42.2444 29.2517 42.2666 29.1387 42.2666C29.0258 42.2666 28.9139 42.2443 28.8096 42.201C28.7053 42.1577 28.6105 42.0943 28.5306 42.0144L27.7639 41.2476L24.3133 37.7971L23.2289 38.8814L26.6794 42.332C26.7593 42.4118 26.8227 42.5066 26.866 42.6109C26.9093 42.7152 26.9316 42.8271 26.9317 42.94C26.9317 43.053 26.9095 43.1649 26.8663 43.2692C26.8231 43.3736 26.7597 43.4684 26.6799 43.5483C26.6 43.6282 26.5052 43.6916 26.4008 43.7348C26.2964 43.778 26.1846 43.8002 26.0716 43.8002C25.9586 43.8001 25.8468 43.7778 25.7425 43.7346C25.6381 43.6913 25.5433 43.6279 25.4635 43.5479L23.9299 42.0144L23.0843 41.1687C23.0275 40.5934 22.7642 40.0582 22.343 39.6623C21.9218 39.2663 21.3714 39.0364 20.7937 39.0152C20.7716 38.4121 20.5221 37.8398 20.0954 37.4131C19.6687 36.9864 19.0964 36.7369 18.4933 36.7148C18.479 36.3409 18.3773 35.9756 18.1962 35.6482C18.0152 35.3207 17.76 35.0402 17.451 34.8292C17.142 34.6183 16.7878 34.4826 16.4169 34.4332C16.046 34.3838 15.6687 34.4221 15.3153 34.5448C15.1907 34.1537 14.9674 33.8012 14.6672 33.5212C14.3669 33.2413 13.9996 33.0433 13.6007 32.9464C13.2017 32.8494 12.7846 32.8568 12.3893 32.9677C11.994 33.0786 11.6339 33.2894 11.3437 33.5797L9.81011 35.1133C9.58785 35.3353 9.41161 35.599 9.29152 35.8893C9.17142 36.1796 9.10984 36.4907 9.1103 36.8049L0.00149708 36.7963L0 38.3299L4.60146 38.3342V43.7067C4.60215 44.3166 4.84473 44.9013 5.27598 45.3326C5.70723 45.7638 6.29194 46.0064 6.90182 46.0071H14.5697V44.4735H6.90182C6.69853 44.4733 6.50363 44.3924 6.35988 44.2487C6.21613 44.1049 6.13527 43.91 6.13503 43.7067V38.3356L9.66536 38.339C9.71097 38.3935 9.75889 38.4468 9.81012 38.498C10.2361 38.9262 10.8092 39.1761 11.4128 39.1969C11.4349 39.7999 11.6843 40.3723 12.1111 40.799C12.5378 41.2257 13.1101 41.4751 13.7131 41.4972C13.7275 41.8711 13.8292 42.2365 14.0102 42.5639C14.1913 42.8914 14.4465 43.1718 14.7555 43.3828C15.0645 43.5938 15.4187 43.7294 15.7895 43.7788C16.1604 43.8282 16.5377 43.79 16.8912 43.6672C16.9959 43.9955 17.1703 44.2973 17.4024 44.552C17.6345 44.8067 17.9188 45.0083 18.236 45.1429C18.5532 45.2776 18.8957 45.3422 19.2401 45.3324C19.5846 45.3225 19.9228 45.2384 20.2318 45.0858L20.5451 45.3991C20.8198 45.6741 21.1573 45.878 21.5286 45.9932C21.8998 46.1084 22.2935 46.1314 22.6756 46.0602C23.0577 45.9891 23.4168 45.8258 23.7216 45.5847C24.0264 45.3435 24.2679 45.0317 24.4251 44.6762C24.7189 44.9553 25.0788 45.1552 25.471 45.257C25.8631 45.3589 26.2748 45.3594 26.6672 45.2585C27.0597 45.1576 27.42 44.9587 27.7145 44.6803C28.009 44.402 28.2279 44.0534 28.3506 43.6672C28.6525 43.7725 28.9724 43.8162 29.2914 43.7957C29.6104 43.7753 29.9221 43.6911 30.208 43.5481C30.494 43.4051 30.7484 43.2063 30.9561 42.9634C31.1639 42.7204 31.3209 42.4383 31.4178 42.1337C31.841 42.2811 32.2971 42.3067 32.7342 42.2076C33.1713 42.1086 33.5717 41.8888 33.89 41.5733C34.2083 41.2578 34.4316 40.8592 34.5346 40.423C34.6375 39.9869 34.6159 39.5305 34.4722 39.106H35.873C36.6337 39.1068 37.3773 38.8805 38.0087 38.4562L39.1462 37.6931C39.2725 37.6082 39.4213 37.563 39.5735 37.5631H39.8736V43.7067C39.8733 43.91 39.7925 44.1049 39.6487 44.2487C39.505 44.3924 39.3101 44.4733 39.1068 44.4735H31.4389V46.0071H39.1068C39.7167 46.0064 40.3014 45.7638 40.7326 45.3326C41.1639 44.9013 41.4065 44.3166 41.4071 43.7067V37.5631H46.0079V36.0295H39.5735C39.1171 36.0291 38.6709 36.1648 38.2921 36.4194L37.1544 37.1826C36.7756 37.4372 36.3294 37.573 35.873 37.5725H33.2901L29.3411 33.6234C30.6695 33.6616 31.9681 33.226 33.0046 32.3944L33.4515 32.037L32.4936 30.8394L32.0467 31.1969C31.2631 31.8249 30.2753 32.1416 29.2726 32.086C28.27 32.0305 27.3231 31.6067 26.6137 30.896L26.1185 30.4008L22.495 33.4203C22.2112 33.6568 21.845 33.7708 21.4771 33.7373C21.1093 33.7038 20.7697 33.5255 20.5332 33.2417C20.2968 32.9579 20.1827 32.5918 20.2161 32.2239C20.2495 31.856 20.4277 31.5164 20.7114 31.2799H20.7114ZM19.4193 24.5371C19.172 24.537 18.9264 24.5769 18.6919 24.6552L12.2632 26.798C12.1852 26.8241 12.1034 26.8373 12.0211 26.8373H12.0204L6.13503 26.8328V2.30035C6.13527 2.09706 6.21613 1.90216 6.35988 1.75841C6.50363 1.61466 6.69853 1.5338 6.90182 1.53357H39.1068C39.3101 1.5338 39.505 1.61466 39.6487 1.75841C39.7925 1.90216 39.8733 2.09706 39.8736 2.30035V26.8375H36.3098C36.2204 26.8375 36.1318 26.8219 36.0478 26.7913L30.8706 24.9087C30.071 24.6187 29.221 24.4934 28.3718 24.5403V24.5371H19.4193ZM11.5025 37.6655C11.3325 37.6655 11.1662 37.6151 11.0248 37.5206C10.8835 37.4261 10.7733 37.2918 10.7082 37.1347C10.6431 36.9776 10.6261 36.8047 10.6593 36.6379C10.6924 36.4711 10.7743 36.3179 10.8946 36.1977L12.4282 34.6641C12.5894 34.5031 12.8081 34.4126 13.036 34.4127C13.2639 34.4128 13.4825 34.5034 13.6437 34.6646C13.8048 34.8258 13.8954 35.0443 13.8955 35.2723C13.8955 35.5002 13.8051 35.7188 13.644 35.8801L12.1105 37.4137C12.0308 37.4938 11.9361 37.5573 11.8317 37.6005C11.7274 37.6437 11.6155 37.6658 11.5025 37.6655ZM13.8029 39.9659C13.6328 39.9659 13.4666 39.9154 13.3252 39.8209C13.1838 39.7265 13.0736 39.5922 13.0085 39.4351C12.9435 39.2779 12.9264 39.1051 12.9596 38.9383C12.9928 38.7715 13.0747 38.6183 13.1949 38.498L14.7285 36.9645L15.4953 36.1977C15.6566 36.0366 15.8752 35.9462 16.1031 35.9463C16.3311 35.9464 16.5496 36.037 16.7108 36.1982C16.872 36.3593 16.9625 36.5779 16.9626 36.8058C16.9627 37.0338 16.8722 37.2524 16.7112 37.4137L14.4108 39.714C14.3312 39.7941 14.2364 39.8576 14.1321 39.9008C14.0277 39.9441 13.9158 39.9662 13.8029 39.9659ZM16.7112 42.0144C16.5499 42.1754 16.3313 42.2658 16.1033 42.2658C15.8754 42.2657 15.6568 42.1751 15.4957 42.0139C15.3345 41.8527 15.2439 41.6342 15.2439 41.4062C15.2438 41.1783 15.3342 40.9597 15.4953 40.7984L17.7957 38.498C17.9569 38.337 18.1756 38.2466 18.4035 38.2467C18.6314 38.2467 18.85 38.3373 19.0112 38.4985C19.1723 38.6597 19.2629 38.8783 19.263 39.1062C19.263 39.3341 19.1726 39.5527 19.0115 39.714L17.478 41.2476L16.7112 42.0144ZM19.7783 43.5479C19.617 43.709 19.3984 43.7994 19.1705 43.7993C18.9425 43.7992 18.724 43.7087 18.5628 43.5475C18.4016 43.3863 18.3111 43.1677 18.311 42.9398C18.3109 42.7119 18.4014 42.4932 18.5624 42.332L20.096 40.7984C20.2573 40.6373 20.4759 40.5469 20.7039 40.547C20.9318 40.5471 21.1504 40.6377 21.3115 40.7989C21.4727 40.96 21.5633 41.1786 21.5633 41.4065C21.5634 41.6345 21.473 41.8531 21.3119 42.0144L19.7783 43.5479ZM22.8455 44.3147C22.7656 44.3946 22.6709 44.4579 22.5665 44.5011C22.4622 44.5443 22.3504 44.5666 22.2375 44.5666C22.1246 44.5666 22.0128 44.5443 21.9085 44.5011C21.8042 44.4579 21.7094 44.3946 21.6296 44.3147L21.405 44.0901L22.3964 43.0988C22.4713 43.0235 22.5412 42.9434 22.6056 42.8589L22.8455 43.0988C23.0065 43.2601 23.0969 43.4788 23.0969 43.7067C23.0969 43.9347 23.0065 44.1534 22.8455 44.3147Z" fill="#FF5200" fill-opacity="0.866667"/>
<path d="M8.43539 18.4028H17.6368V19.9364H8.43539V18.4028Z" fill="#FF5200" fill-opacity="0.866667"/>
<path d="M10.7357 21.47H14.5697V23.0035H10.7357V21.47Z" fill="#FF5200" fill-opacity="0.866667"/>
<path d="M28.3718 18.4028H37.5732V19.9364H28.3718V18.4028Z" fill="#FF5200" fill-opacity="0.866667"/>
<path d="M30.6721 21.47H34.5061V23.0035H30.6721V21.47Z" fill="#FF5200" fill-opacity="0.866667"/>
<path d="M17.6368 3.83386H28.3718V5.36743H17.6368V3.83386Z" fill="#FF5200" fill-opacity="0.866667"/>
<path d="M8.43539 7.66785H37.5732V9.20142H8.43539V7.66785Z" fill="#FF5200" fill-opacity="0.866667"/>
<path d="M8.43539 10.735H37.5732V12.2686H8.43539V10.735Z" fill="#FF5200" fill-opacity="0.866667"/>
<path d="M8.43539 13.8021H24.5379V15.3357H8.43539V13.8021Z" fill="#FF5200" fill-opacity="0.866667"/>
</svg>
